<?xml version="1.0" encoding="utf-8"?>
<!-- Generator: Adobe Illustrator 16.0.3, SVG Export Plug-In . SVG Version: 6.00 Build 0)  -->
<!DOCTYPE svg PUBLIC "-//W3C//DTD SVG 1.1//EN" "http://www.w3.org/Graphics/SVG/1.1/DTD/svg11.dtd">
<svg version="1.1" id="Capa_1" xmlns="http://www.w3.org/2000/svg" xmlns:xlink="http://www.w3.org/1999/xlink" x="0px" y="0px"
	 width="231.092px" height="237.092px" viewBox="0 0 231.092 237.092" enable-background="new 0 0 231.092 237.092"
	 xml:space="preserve">
<path fill="#1D71B8" d="M154.985,154.205c-16.768,12.94-32.85,25.906-48.312,39.96C126.606,195.138,150.413,176.463,154.985,154.205
	z"/>
<path fill="#224460" d="M91.772,50.716c1.656,0.797,3.388,1.445,5.017,2.292c4.931,2.562,10.081,4.481,15.579,5.344
	c1.726,0.271,3.53,0.066,5.25,0.363c2.901,0.5,5.764,0.045,8.573-0.351c3.865-0.545,7.697-1.45,11.473-2.464
	c3.156-0.848,6.338-1.781,9.226-3.345c2.48-1.344,5.017-2.457,7.716-3.246c0.759-0.221,1.494-0.575,2.183-0.967
	c0.563-0.32,1.029-0.834,0.928-1.552c-0.092-0.654-0.715-0.806-1.229-1.008c-1.605-0.632-3.297-0.566-4.973-0.574
	c-2.158-0.01-4.322,0.231-6.472-0.062c-5.223-0.71-10.433-1.524-15.735-1.339c-0.949,0.033-1.904-0.207-2.86-0.261
	c-3.267-0.187-6.411-1.444-9.729-1.08c-2.759-0.32-5.401,0.578-8.104,0.729c-5.639,0.316-10.707,2.431-15.74,4.708
	c-0.504,0.228-0.994,0.534-1.413,0.894C90.509,49.612,90.583,50.144,91.772,50.716z"/>
<path fill="#1D71B8" d="M157.332,133.983c-5.071,3.474-10.124,6.973-15.191,10.451c-3.493,2.397-6.739,5.129-10.177,7.592
	c-4.738,3.395-9.546,6.713-14.388,9.942c-6.672,4.45-12.433,10.003-18.929,14.638c-1.421,1.014-2.643,2.292-4.094,3.307
	c-3.728,2.609-7.309,5.423-11.076,7.985c-1.295,0.882-2.373,2.083-3.872,3.425c1.117,0.346,1.786,0.606,2.479,0.757
	c1.95,0.425,3.905,0.83,5.866,1.196c4.485,0.837,4.554,0.897,7.884-2.188c7.042-6.525,14.733-12.268,22.104-18.394
	c6.935-5.763,14.209-11.121,21.392-16.581c5.592-4.251,11.488-8.095,16.763-12.775c1.524-1.353,2.615-2.772,2.738-4.82
	c0.077-1.275,0.157-2.556,0.115-3.831C158.901,133.331,158.517,133.171,157.332,133.983z"/>
<path fill="#1D71B8" d="M179.824,61.41c-1.278-2.308-2.583-4.602-4.13-6.744c-1.778-2.462-2.87-2.729-5.681-1.735
	c-3.534,1.25-7.09,2.452-10.649,3.609c-4.18,1.359-8.203,3.099-12.335,4.561c-2.327,0.824-4.545,1.953-6.849,2.849
	c-1.859,0.723-3.729,1.575-5.672,1.889c-4.639,0.749-9.078,2.349-13.836,2.687c-4.974,0.353-9.855,0.386-14.749-0.584
	c-6.151-1.219-11.911-3.616-17.733-5.819c-2.093-0.792-4.085-1.229-6.219-0.111c-1.123,0.588-2.366,0.975-3.59,1.332
	c-1.19,0.347-1.95,1.122-2.382,2.189c-2.215,5.469-4.719,10.871-4.562,16.973c0.049,1.892-0.171,3.944,1.639,5.253
	c1.744,1.261,3.49,2.572,5.397,3.543c4.117,2.097,8.209,4.239,12.569,5.858c7.375,2.74,14.859,4.906,22.747,5.424
	c1.91,0.125,3.738,0.952,5.21,0.673c8.657-0.375,16.646-1.908,24.5-4.055c6.175-1.688,11.909-4.589,17.737-7.195
	c1.373-0.614,2.679-1.453,3.871-2.376c1.076-0.833,2.151-1.652,3.307-2.365c2.651-1.635,5.298-3.277,7.971-4.877
	c2.467-1.478,4.515-3.353,5.483-6.116c1.196-3.415,2.143-6.882,0.289-10.404C181.374,64.386,180.636,62.877,179.824,61.41z"/>
<path fill="#1D71B8" d="M158.492,106.065c-3.305,1.652-6.849,2.669-10.242,4.074c-5.268,2.181-10.677,3.787-16.342,4.541
	c-6.698,0.892-13.382,0.97-20.065-0.097c-5.048-0.806-10.04-1.874-15.011-3.07c-6.861-1.651-12.98-4.936-18.951-8.503
	c-3.554-2.124-6.893-4.606-10.037-7.332c-1.249-1.083-1.688-0.958-2.658,0.417c-2.255,3.199-4.532,6.383-6.755,9.604
	c-2.269,3.288-4.529,6.583-6.716,9.925c-3.812,5.827-6.189,12.257-7.724,19.01c-0.92,4.045-1.841,8.099-1.972,12.266
	c-0.176,2.117,0.15,4.159,0.773,6.166c1.209,3.893,2.338,7.812,3.64,11.673c1.521,4.509,3.809,8.585,7.268,11.939
	c1.206,1.168,2.349,2.401,3.517,3.608c3.33,3.442,7.14,6.151,11.705,7.722c1.084,0.373,2.007,0.589,3.083-0.309
	c5.514-4.602,11.716-8.3,17.142-13.031c2.954-2.576,6.224-4.744,9.405-7.031c6.553-4.711,12.718-9.944,19.344-14.563
	c0.587-0.409,1.156-0.875,1.636-1.402c1.148-1.263,2.502-2.25,4-3.023c1.506-0.777,2.888-1.739,4.171-2.811
	c3.688-3.081,7.785-5.591,11.66-8.409c6.076-4.419,12.296-8.64,18.498-12.884c1.448-0.99,2.101-2.147,2.208-3.942
	c0.266-4.458-0.57-8.923,0.263-13.384C160.619,105.675,160.004,105.309,158.492,106.065z"/>
<path fill="#122941" d="M195.133,77.89c-2.418-4.69-5.172-9.185-7.872-13.711c-3.845-6.447-8.343-12.514-11.249-19.505
	c-0.5-1.203-1.295-2.348-2.46-2.858c-2.257-0.989-4.524-2.257-7.025-2.279c-4.173-0.037-8.291-0.479-12.414-1.013
	c-7.076-0.916-14.217-0.322-21.318-0.923c-5.34-0.452-10.684,0.309-16.024,0.683c-5.572,0.391-11.111,1.118-16.697,1.365
	c-5.064,0.224-9.893,1.812-14.773,3.037c-1.544,0.387-3.111,0.72-4.525,1.541c-1.239,0.719-2.542,1.26-3.972,1.598
	c-2.282,0.539-2.755,1.201-2.666,3.534c0.188,4.896-0.895,9.492-2.793,13.983c-1.335,3.16-2.442,6.417-3.362,9.739
	c-1.132,4.085-2.419,8.161-5.521,11.271c-1.062,1.064-1.521,2.232-1.464,3.638c0.045,1.116-0.386,1.982-1.003,2.864
	c-0.962,1.376-2.125,2.583-3.071,3.983c-3.042,4.504-5.975,9.068-8.841,13.69c-4.426,7.136-7.774,14.688-10.021,22.728
	c-1.875,6.711-3.138,13.544-2.854,20.837c-0.492,3.708,0.563,7.484,1.298,11.338c1,5.247,2.595,10.146,5.518,14.687
	c4.923,7.648,11.421,13.5,19.313,17.888c1.186,0.659,2.38,1.416,3.668,1.76c6.092,1.627,11.862,4.296,18.118,5.411
	c4.573,0.815,9.114,1.671,13.789,1.139c0.547-0.063,1.119-0.006,1.668,0.067c2.394,0.321,4.779,0.246,7.172-0.034
	c5.162-0.604,10.192-1.798,15.219-3.097c4.047-1.046,7.927-2.477,11.741-4.131c8.586-3.726,15.48-9.82,22.195-16.113
	c1.666-1.562,3.134-3.391,4.155-5.537c0.646-1.357,1.613-2.57,2.502-3.8c0.565-0.782,1.059-1.588,1.486-2.454
	c2.163-4.382,3.67-9.013,5.232-13.625c0.413-1.217,0.708-2.449,0.938-3.713c0.743-4.093,1.317-8.208,1.718-12.347
	c0.393-4.055,1.112-8.08,1.12-12.17c0.006-3.594-0.01-7.172-0.387-10.769c-0.553-5.281,0.79-10.5,0.983-15.769
	c0.051-1.404,1.099-2.094,2.161-2.664c5.216-2.794,10.266-5.869,15.332-8.919c2.526-1.52,5.162-2.838,7.091-5.189
	c1.018-1.241,1.078-1.298,0.182-2.585C196.612,80.302,195.778,79.142,195.133,77.89z M91.461,48.795
	c0.419-0.36,0.909-0.666,1.413-0.894c5.033-2.276,10.101-4.392,15.74-4.708c2.702-0.151,5.344-1.049,8.104-0.729
	c3.318-0.364,6.462,0.894,9.729,1.08c0.956,0.054,1.911,0.294,2.86,0.261c5.302-0.185,10.512,0.629,15.735,1.339
	c2.149,0.292,4.314,0.052,6.472,0.062c1.676,0.007,3.368-0.059,4.973,0.574c0.514,0.203,1.137,0.354,1.229,1.008
	c0.101,0.718-0.366,1.232-0.928,1.552c-0.689,0.392-1.424,0.746-2.183,0.967c-2.699,0.789-5.236,1.902-7.716,3.246
	c-2.887,1.564-6.07,2.497-9.226,3.345c-3.775,1.015-7.607,1.919-11.473,2.464c-2.809,0.396-5.671,0.851-8.573,0.351
	c-1.72-0.296-3.523-0.092-5.25-0.363c-5.498-0.863-10.648-2.782-15.579-5.344c-1.629-0.847-3.361-1.494-5.017-2.292
	C90.583,50.144,90.509,49.612,91.461,48.795z M106.673,194.166c15.461-14.055,31.544-27.02,48.312-39.96
	C150.413,176.463,126.606,195.138,106.673,194.166z M158.831,138.52c-0.123,2.048-1.213,3.467-2.738,4.82
	c-5.275,4.68-11.17,8.524-16.763,12.775c-7.183,5.46-14.457,10.817-21.392,16.581c-7.371,6.125-15.062,11.869-22.104,18.394
	c-3.33,3.085-3.398,3.025-7.884,2.188c-1.961-0.366-3.917-0.771-5.866-1.196c-0.693-0.15-1.361-0.411-2.479-0.757
	c1.499-1.342,2.577-2.543,3.872-3.425c3.767-2.563,7.348-5.376,11.076-7.985c1.451-1.016,2.673-2.293,4.094-3.307
	c6.496-4.634,12.256-10.188,18.929-14.638c4.841-3.229,9.649-6.547,14.388-9.942c3.438-2.463,6.684-5.195,10.177-7.592
	c5.068-3.478,10.121-6.977,15.191-10.451c1.186-0.812,1.569-0.653,1.614,0.706C158.988,135.963,158.908,137.245,158.831,138.52z
	 M160.331,107.219c-0.833,4.461,0.002,8.926-0.263,13.384c-0.106,1.795-0.76,2.952-2.208,3.942
	c-6.201,4.244-12.422,8.465-18.498,12.884c-3.875,2.818-7.972,5.328-11.66,8.409c-1.283,1.072-2.666,2.034-4.171,2.811
	c-1.498,0.773-2.852,1.76-4,3.023c-0.48,0.528-1.049,0.993-1.636,1.402c-6.626,4.619-12.792,9.851-19.344,14.563
	c-3.181,2.287-6.451,4.455-9.405,7.031c-5.425,4.731-11.628,8.429-17.142,13.031c-1.076,0.898-2,0.682-3.083,0.309
	c-4.565-1.571-8.375-4.28-11.705-7.722c-1.167-1.207-2.311-2.439-3.517-3.608c-3.459-3.354-5.748-7.431-7.268-11.939
	c-1.302-3.861-2.431-7.781-3.64-11.673c-0.623-2.007-0.949-4.049-0.773-6.166c0.131-4.167,1.052-8.22,1.972-12.266
	c1.535-6.752,3.913-13.183,7.724-19.01c2.187-3.343,4.447-6.638,6.716-9.925c2.224-3.221,4.5-6.405,6.755-9.604
	c0.969-1.375,1.409-1.5,2.658-0.417c3.144,2.726,6.483,5.208,10.037,7.332c5.97,3.568,12.09,6.852,18.951,8.503
	c4.972,1.196,9.963,2.264,15.011,3.07c6.684,1.067,13.368,0.988,20.065,0.097c5.665-0.754,11.075-2.36,16.342-4.541
	c3.393-1.405,6.937-2.421,10.242-4.074C160.004,105.309,160.619,105.675,160.331,107.219z M181.867,76.274
	c-0.968,2.763-3.016,4.638-5.483,6.116c-2.672,1.6-5.319,3.243-7.971,4.877c-1.156,0.713-2.231,1.532-3.307,2.365
	c-1.192,0.923-2.498,1.762-3.871,2.376c-5.828,2.605-11.562,5.507-17.737,7.195c-7.854,2.146-15.843,3.679-24.5,4.055
	c-1.472,0.278-3.3-0.548-5.21-0.673c-7.887-0.518-15.372-2.684-22.747-5.424c-4.36-1.62-8.452-3.762-12.569-5.858
	c-1.907-0.971-3.653-2.282-5.397-3.543c-1.81-1.309-1.59-3.361-1.639-5.253c-0.157-6.102,2.347-11.504,4.562-16.973
	c0.432-1.067,1.191-1.842,2.382-2.189c1.224-0.357,2.468-0.744,3.59-1.332c2.133-1.118,4.125-0.681,6.219,0.111
	c5.822,2.204,11.582,4.6,17.733,5.819c4.894,0.97,9.774,0.937,14.749,0.584c4.758-0.337,9.197-1.938,13.836-2.687
	c1.943-0.313,3.813-1.166,5.672-1.889c2.304-0.896,4.522-2.025,6.849-2.849c4.132-1.462,8.155-3.202,12.335-4.561
	c3.559-1.157,7.116-2.359,10.649-3.609c2.812-0.994,3.903-0.727,5.681,1.735c1.547,2.142,2.853,4.436,4.13,6.744
	c0.813,1.467,1.55,2.976,2.332,4.46C184.01,69.392,183.063,72.859,181.867,76.274z"/>
</svg>
