<?xml version="1.0" encoding="utf-8"?>
<!-- Generator: Adobe Illustrator 16.0.3, SVG Export Plug-In . SVG Version: 6.00 Build 0)  -->
<!DOCTYPE svg PUBLIC "-//W3C//DTD SVG 1.1//EN" "http://www.w3.org/Graphics/SVG/1.1/DTD/svg11.dtd">
<svg version="1.1" id="Capa_1" xmlns="http://www.w3.org/2000/svg" xmlns:xlink="http://www.w3.org/1999/xlink" x="0px" y="0px"
	 width="231.092px" height="237.092px" viewBox="0 0 231.092 237.092" enable-background="new 0 0 231.092 237.092"
	 xml:space="preserve">
<path fill="#EE7118" d="M102.417,115.152c0.453-1.494,0.4-3.744,0-4.825C102.417,111.942,102.417,113.547,102.417,115.152z"/>
<path fill="#EAEAEA" d="M112.133,53.531c-1.542,0.058-3.089,0.024-4.619,0.286c-1.224,0.21-1.469,0.435-1.553,1.645
	c-0.092,1.315,0.082,2.639-0.121,3.953c-0.088,0.57,0.187,0.886,0.762,0.877c0.515-0.008,1.04-0.014,1.54-0.116
	c1.067-0.219,2.115-0.538,3.221-0.506c1.901,0.056,3.766-0.358,5.657-0.443c0.382-0.017,0.803-0.028,1.157-0.565
	c-2.247-0.878-3.82-2.462-4.858-4.597C113.09,53.593,112.612,53.513,112.133,53.531z"/>
<path fill="#EAEAEA" d="M112.715,64.84c-0.002,3.298-0.288,6.43-0.052,9.562C112.451,71.243,113.755,68.099,112.715,64.84z"/>
<path fill="#BCE3F3" d="M123.173,66.78c-0.302,1.413-0.312,2.849-0.371,4.28c-0.058,1.396,0.653,1.893,1.929,1.263
	c1.273-0.629,2.563-1.207,3.79-1.972c1.704-1.064,2.212-1.607,2.01-3.586c-0.08-0.797-0.138-1.597-0.192-2.252
	c0.063-0.607,0.133-1.062,0.156-1.519c0.059-1.192-0.218-1.412-1.234-0.877c-1.925,1.013-3.768,2.163-5.514,3.468
	C123.328,65.898,123.27,66.329,123.173,66.78z"/>
<path fill="#EAEAEA" d="M126.038,46.651c1.318,2.144,1.881,4.386,0.979,6.858c-0.256,0.701-0.581,1.357-1.166,2.205
	c3.237-0.178,5.251-1.922,7.058-3.962c0.741-0.837,0.438-1.227-0.753-1.44c-2.666-0.476-4.961-1.479-5.621-4.494
	c-0.091-0.418-0.257-0.78-0.743-0.81c-0.149-0.01-0.391,0.065-0.444,0.174c-0.23,0.465,0.222,0.709,0.403,1.042
	C125.833,46.374,125.948,46.505,126.038,46.651z"/>
<path fill="#EAEAEA" d="M121.474,55.518c1.751-1.792,2.947-3.944,2.662-6.622c-0.122-1.149-0.87-2.029-2.008-2.266
	c-0.499-0.104-1.023-0.093-1.196-0.107c-3.274-0.009-4.619,1.186-4.979,4.119c-0.042,0.341-0.051,0.695-0.156,1.017
	c-0.291,0.896-0.031,1.709,0.368,2.479C117.269,56.263,119.977,57.051,121.474,55.518z"/>
<path fill="#EAEAEA" d="M104.607,106.332c0.051,2.7,0.084,5.4,0.084,8.101c0,0.688,0.145,1.165,0.917,1.122
	c2.066-0.115,4.13-0.244,6.169-0.645c0.808-0.159,0.98-0.691,0.978-1.382c-0.007-1.496,0.015-2.993-0.032-4.487
	c-0.128-4.022-0.249-8.045-0.447-12.064c-0.123-2.472-0.173-4.932,0.014-7.406c0.236-3.129,0.165-6.267,0.027-9.403
	c-0.313,9.03-0.275,18.083-1.889,27.007c-0.16-0.01-0.32-0.021-0.48-0.032c0-0.729,0.077-1.468-0.013-2.186
	c-0.423-3.326-0.17-6.665-0.272-9.996c-0.09-2.94,0.418-5.85,0.337-8.783c-0.029-1.03-0.266-2.067-0.186-3.084
	c0.309-3.953,0.706-7.899,0.61-11.874c-0.034-1.378-0.004-2.754,0.194-4.131c0.139-0.96,0.107-1.953,0.077-2.929
	c-0.034-1.099-0.267-1.304-1.335-1.34c-0.87-0.029-1.709,0.222-2.562,0.321c-0.97,0.112-1.289,0.654-1.231,1.517
	c0.098,1.515,0.038,2.977-0.835,4.316c-0.198,0.306-0.188,0.778-0.193,1.174c-0.017,1.266,0.018,2.531,0.008,3.796
	c-0.044,6.089,0.355,12.183-0.221,18.269c-0.167,1.772-0.336,3.575-0.054,5.341C104.742,100.472,104.55,103.404,104.607,106.332z"/>
<path fill="#EE7118" d="M103.869,40.331c-0.011-0.001-0.022-0.004-0.033-0.005c-0.003,0.006-0.004,0.012-0.006,0.019
	c0.008,0,0.013,0.001,0.021,0.002C103.855,40.341,103.863,40.337,103.869,40.331z"/>
<path fill="#EAEAEA" d="M105.171,41.569c-0.266,1.503,0.127,2.98-0.007,4.461c-0.15,1.667,0.512,3.258,0.382,4.932
	c-0.058,0.738,0.499,1.154,1.281,0.949c0.732-0.191,1.477-0.191,2.219-0.263c1.335-0.128,1.574-0.347,1.626-1.704
	c0.055-1.434-0.025-2.873,0.034-4.307c0.075-1.833,0.226-3.664,0.353-5.495c0.02-0.304,0.138-0.593,0.492-0.579
	c0.23,0.009,0.383,0.225,0.469,0.449c0.235,0.607,0.14,1.249,0.194,1.875c0.105,1.199,0.226,2.396,0.345,3.594
	c0.005,0.039,0.069,0.09,0.114,0.103c0.22,0.063,0.051-0.251,0.187,0.06c0.392-1.904,0.233-3.74,0.24-5.566
	c0.003-0.931-0.645-1.079-1.406-1.119c-2.083-0.111-4.118,0.252-6.153,0.599c-0.609,0.104-1.217,0.298-1.671,0.775
	C104.609,40.428,105.319,40.737,105.171,41.569z"/>
<path fill="#EAEAEA" d="M102.559,41.184c-0.025,0.858,0.031,1.714-0.055,2.577c-0.246,2.496-0.457,4.996-0.642,7.497
	c-0.112,1.492,0.41,2.966,0.191,4.463c-0.218,1.484-0.219,2.977-0.236,4.469c-0.022,1.805,0.086,3.613-0.396,5.526
	c0.593-0.253,0.584-0.579,0.578-0.843c-0.089-3.214,0.759-6.37,0.579-9.593c-0.045-0.79,0.002-1.648,0.272-2.378
	c0.787-2.131,0.587-4.289,0.443-6.468c-0.138-2.053-0.245-4.113,0.537-6.089C102.647,40.183,102.588,40.205,102.559,41.184z"/>
<path fill="#BCE3F3" d="M131.395,47.512c1.179-0.038,2.361-0.879,2.312-1.647c-0.064-1.006-1.495-2.403-2.42-2.364
	c-1.038,0.045-1.884,1.11-1.838,2.315C129.489,46.902,130.232,47.55,131.395,47.512z"/>
<path fill="#EAEAEA" d="M47.542,164.33c-0.094-1.174-0.171-1.246-1.369-1.158c-3.198,0.234-6.396,0.383-9.549,1.101
	c-3.974,0.905-7.989,1.581-11.823,3.076c-2.07,0.808-3.139,2.234-3.586,4.256c-0.172,0.777-0.184,1.6-0.19,2.402
	c-0.021,2.991-0.008,5.982-0.008,8.974c-0.004,0-0.008,0-0.013,0c0,0.633,0,1.265,0,1.898c0.001,2.761-0.013,5.523,0.01,8.283
	c0.011,1.36,0.173,1.472,1.539,1.307c1.141-0.138,2.282-0.276,3.421-0.424c2.906-0.378,5.803-0.95,8.721-1.097
	c4.083-0.206,7.292-2.221,10.465-4.436c0.387-0.27,0.565-0.715,0.828-1.091c1.654-2.367,1.665-5.088,1.639-7.791
	c-0.033-3.389-0.331-6.787-0.049-10.162C47.721,167.735,47.681,166.042,47.542,164.33z"/>
<path fill="#EAEAEA" d="M46.408,160.225c-2.609-0.319-5.198-0.875-7.86-0.479c-5.387,0.804-10.792,1.461-16.225,1.88
	c-1.138,0.088-2.267,0.337-3.502,1.093c0.839,0.172,1.403,0.416,1.95,0.381c8.735-0.547,17.41-1.72,26.137-2.388
	C46.862,160.315,46.613,160.25,46.408,160.225z"/>
<path fill="#EAEAEA" d="M128.892,72.635c-1.672,0.73-3.357,1.436-4.987,2.254c-0.611,0.307-0.98,0.959-1.007,1.702
	c-0.013,0.372,0.094,0.695,0.802,0.6c1.232-0.639,2.746-1.168,4.078-2.081c0.665-0.457,1.294-0.94,1.759-1.609
	c0.163-0.235,0.349-0.5,0.146-0.772C129.481,72.455,129.145,72.524,128.892,72.635z"/>
<path fill="#EAEAEA" d="M18.096,172.591c0.22-2.023-0.116-4.008-0.329-6.002c-0.033-0.313-0.134-0.696-0.583-0.735
	c0.007,8.587-0.255,17.177,0.654,25.897c0.293-0.266,0.441-0.338,0.441-0.409c-0.048-2.926,0.005-5.861-0.198-8.778
	C17.85,179.233,17.735,175.914,18.096,172.591z"/>
<path fill="#EAEAEA" d="M144.131,55.018c-0.374-0.104-0.524-0.181-0.675-0.181c-2.58,0.01-5.161,0.037-7.741,0.046
	c-1.123,0.004-1.768,0.624-2.348,1.807C137.215,57.08,140.647,56.62,144.131,55.018z"/>
<path fill="#BCE3F3" d="M140.954,71.686c-2.458,0.082-4.911,0.271-7.373,0.174c-0.343-0.013-0.69,0.009-0.982,0.232
	c-0.295,0.225-0.458,0.537-0.41,0.894c0.059,0.44,0.44,0.476,0.788,0.472c2.848-0.034,5.621-0.465,8.4-1.532
	C141.135,71.785,141.042,71.683,140.954,71.686z"/>
<path fill="#EAEAEA" d="M143.094,46.786c0.92-0.075,2.011-1.082,1.978-1.828c-0.029-0.692-0.927-1.366-1.748-1.312
	c-0.709,0.046-1.738,1.156-1.747,1.883C141.569,46.275,142.268,46.853,143.094,46.786z"/>
<path fill="#BCE3F3" d="M137.529,49.201c0.923,2.194,2.403,3.389,4.735,3.137c1.604-0.173,3.209-0.233,4.817-0.301
	c0.932-0.04,1.828-0.248,2.69-0.558c0.87-0.313,1.716-0.736,2.121-1.651c1-2.266,1.737-4.626,2.47-6.987
	c0.197-0.634-0.065-1-0.73-1.057c-0.974-0.082-1.95-0.126-2.918-0.247c-1.786-0.221-3.539-0.093-5.43,0.363
	c0.53,0.866,0.961,1.54,1.36,2.232c0.261,0.454,0.409,0.951,0.34,1.488c-0.264,2.085-2.361,3.442-4.806,3.111
	c-1.833-0.248-2.975-1.872-2.708-3.903c0.051-0.39,0.238-0.762,0.36-1.142c0.188-0.58,0.451-1.144,0.464-1.736
	c-0.515-0.295-0.987-0.204-1.438-0.208c-0.804-0.006-1.613-0.018-2.413,0.057c-1.207,0.115-1.347,0.365-0.997,1.58
	C136.017,45.365,136.727,47.292,137.529,49.201z"/>
<path fill="#EAEAEA" d="M138.347,74.871c-0.367,0.137-0.898,0.287-0.763,0.768c0.162,0.576,0.714,0.274,1.019,0.134
	c0.847-0.39,1.776-0.474,2.63-0.79c1.258-0.465,2.611-0.774,3.566-1.866c-1.516-0.085-2.813,0.575-4.176,0.964
	C139.852,74.301,139.099,74.59,138.347,74.871z"/>
<path fill="#BCE3F3" d="M147.076,60.755c-3.66-0.4-7.334-0.464-11.013-0.304c-0.852,0.037-1.44,0.431-1.607,1.279
	c-0.308,1.565-1.101,3.049-0.848,4.338c0,0.723,0,1.067,0,1.412c0.006,1.8,0.292,2.08,2.129,2.031
	c1.088-0.028,2.141-0.338,3.244-0.354c1.894-0.027,3.778-0.005,5.671,0.101c1.856,0.104,3.43-1.292,3.68-3.123
	c0.077-0.566,0.19-1.062,0.457-1.603C149.566,62.958,148.615,60.923,147.076,60.755z M136.725,64.458
	c-1.175-0.005-1.9-0.551-1.923-1.443c-0.033-1.316,0.867-2.358,1.983-2.296c0.843,0.046,1.718,1.115,1.682,2.052
	C138.426,63.802,137.743,64.463,136.725,64.458z M146.273,65.152c-1.072-0.001-2.392-1.278-2.398-2.32
	c-0.006-0.916,0.894-1.551,2.12-1.497c0.995,0.043,1.67,0.946,1.657,2.214C147.641,64.573,147.142,65.152,146.273,65.152z"/>
<path fill="#616160" d="M140.85,145.885c1.45-0.352,2.909-0.583,4.393-0.727c0.962-0.092,1.919-0.318,2.859-0.558
	c0.82-0.209,1.158-1.082,1.013-2.247c-0.115-0.922-0.805-0.8-1.526-0.858c-1.88,0.227-3.866,0.463-5.85,0.709
	c-1.702,0.21-2.231,0.824-2.225,2.554C139.519,145.817,139.835,146.131,140.85,145.885z"/>
<path fill="#B5B5B5" d="M193.573,142.448c-1.905,0.631-3.875,0.409-5.82,0.476c-1.157,0.039-2.308,0.07-3.408,0.431
	c-2.046,0.669-4.192,0.737-6.293,0.927c-3.941,0.358-7.877,0.774-11.815,1.153c-3.654,0.352-7.31,0.671-10.966,0.972
	c-4.304,0.354-8.544,1.173-12.775,1.941c-3.396,0.617-6.808,1.046-10.219,1.495c-4.214,0.553-8.455,0.94-12.658,1.542
	c-7.159,1.023-14.277,2.332-21.483,3.033c-0.805,0.078-1.149,0.436-1.059,1.217c0.083,0.715,0.376,1.196,1.222,1.087
	c0.454-0.059,0.917-0.047,1.377-0.068c4.461-0.389,8.927-0.791,13.336-1.578c3.112-0.556,6.245-0.894,9.375-1.283
	c3.247-0.404,6.522-0.542,9.74-1.208c6.076-1.257,12.183-2.356,18.329-3.205c6.712-0.927,13.417-1.936,20.179-2.45
	c4.695-0.357,9.397-0.6,14.088-1c3.088-0.263,6.163-0.699,9.24-1.094c0.673-0.086,0.968-0.743,0.843-1.607
	C194.698,142.487,194.236,142.229,193.573,142.448z"/>
<path fill="#EAEAEA" d="M185.214,165.148c0.07-0.275,0.237-0.561,0.202-0.82c-0.332-2.484,0.341-4.923,0.298-7.396
	c-0.034-1.951,0.173-3.908,0.117-5.857c-0.039-1.349-0.426-1.61-1.752-1.485c-2.745,0.257-5.476,0.661-8.249,0.607
	c-1.219-0.024-1.46,0.236-1.388,1.44c0.191,3.219-0.212,6.426-0.112,9.642c0.018,0.574,0.019,1.153-0.036,1.725
	c-0.085,0.909-0.719,1.646-1.319,1.517c-0.822-0.178-0.763-0.892-0.791-1.521c-0.01-0.229,0.005-0.46,0.022-0.69
	c0.255-3.382,0.486-6.766,0.784-10.144c0.136-1.538,0.058-1.671-1.545-1.473c-1.312,0.162-2.619,0.417-3.936,0.49
	c-4.94,0.271-9.778,1.398-14.72,1.677c-1.825,0.103-3.624,0.61-5.446,0.84c-3.93,0.496-7.767,1.611-11.748,1.77
	c-0.396,0.015-0.795,0.139-1.179,0.256c-2.378,0.726-4.845,0.998-7.29,1.291c-3.936,0.474-7.854,1.069-11.734,1.841
	c-3.772,0.75-7.485,1.751-11.377,1.794c-1.132,0.013-2.279,0.252-3.431,0.225c-0.639-0.015-1.253,0.118-1.873,0.258
	c-1.178,0.265-2.359,0.634-3.549,0.682c-1.613,0.064-3.007,0.689-4.44,1.275c-3.353,1.37-6.746,2.625-10.168,3.813
	c-2.014,0.699-4.11,1.084-6.104,1.827c-1.716,0.639-1.927,0.916-1.942,2.776c-0.022,2.531,0.037,5.067-0.49,7.563
	c-0.312,1.48-0.278,2.977-0.249,4.469c0.026,1.342,0.431,1.71,1.728,1.311c2.656-0.818,5.44-0.939,8.11-1.645
	c0.833-0.221,1.665-0.478,2.515-0.602c4.269-0.621,8.504-1.425,12.734-2.254c5.249-1.029,10.449-2.345,15.729-3.149
	c5.407-0.825,10.768-1.836,16.114-2.962c1.519-0.32,3.018-0.856,4.55-0.963c3.403-0.238,6.735-0.728,9.955-1.878
	c0.217-0.078,0.444-0.122,0.669-0.168c4.279-0.878,8.563-1.734,12.835-2.639c2.304-0.488,4.566-1.246,6.891-1.558
	c6.423-0.861,12.823-1.931,19.294-2.411c0.355-0.026,0.707-0.123,0.863,0.312c0.131,0.367-0.004,0.693-0.285,0.926
	c-0.542,0.45-1.206,0.649-1.868,0.857c-3.258,1.021-6.642,1.305-9.999,1.775c-2.445,0.342-4.924,0.385-7.348,0.935
	c-3.363,0.764-6.725,1.53-10.117,2.17c-3.389,0.639-6.769,1.354-10.115,2.179c-3.233,0.797-6.388,1.944-9.8,1.698
	c-0.446-0.032-0.917,0.107-1.356,0.235c-5.365,1.576-10.974,1.944-16.384,3.302c-0.278,0.07-0.573,0.144-0.851,0.122
	c-3.283-0.261-6.339,0.965-9.498,1.486c-5.096,0.842-10.137,2.02-15.22,2.943c-5.372,0.975-10.701,2.18-16.104,2.988
	c-0.44,0.066-0.909,0.137-1.242,0.533c0.112,0.645,0.7,0.871,1.103,1.247c2.696,2.511,5.73,4.588,8.653,6.816
	c3.607,2.75,7.032,5.74,10.485,8.687c1.057,0.902,2.133,1.139,3.487,0.977c4.06-0.489,7.936-1.942,12.033-2.208
	c0.5-0.032,1.185-0.069,1.363-0.576c0.246-0.697-0.548-0.911-0.937-1.273c-2.617-2.434-5.514-4.518-8.375-6.645
	c-3.562-2.649-6.483-6.039-10.064-8.666c-0.231-0.171-0.427-0.391-0.323-0.727c0.194-0.212,0.43-0.156,0.636-0.06
	c2.131,1.005,4.262,1.998,6.005,3.66c2.043,1.944,4.284,3.651,6.538,5.349c2.245,1.692,4.6,3.26,6.58,5.289
	c0.867,0.888,1.887,1.669,1.814,3.097c3.021-0.588,5.869-1.237,8.747-1.762c3.279-0.599,6.426-1.759,9.701-2.428
	c5.458-1.114,10.741-2.979,16.271-3.815c5.229-0.792,10.43-1.742,15.606-2.824c5.229-1.091,10.511-1.964,15.575-3.742
	c1.203-0.423,2.451-0.664,3.707-0.789c4.238-0.422,8.422-1.157,12.589-2.021c0.657-0.136,1.313-0.258,1.88-0.577
	c-0.095-0.52-0.45-0.625-0.727-0.814c-3.317-2.277-6.665-4.512-9.875-6.942c-2.933-2.221-5.709-4.656-8.944-6.459
	c-0.149-0.083-0.29-0.192-0.407-0.314c-0.161-0.165-0.343-0.373-0.215-0.605c0.177-0.321,0.488-0.247,0.745-0.106
	c0.503,0.276,0.967,0.633,1.487,0.869c2.829,1.284,5.414,2.956,8.015,4.649c4.332,2.822,8.488,5.904,12.9,8.607
	c0.701,0.431,1.299,0.661,2.064,0.507c3.1-0.625,6.198-1.253,9.295-1.888c0.214-0.043,0.459-0.105,0.433-0.43
	c-0.208-0.367-0.588-0.533-0.935-0.727c-1.606-0.897-3.222-1.778-4.83-2.672c-2.709-1.507-5.261-3.329-8.285-4.206
	c-2.172-0.631-3.974-2.02-6.035-2.903c-1.71-0.734-3.254-1.921-4.932-2.806C185.305,167.278,184.907,166.356,185.214,165.148z
	 M91.128,178.426c-0.025,0.66-0.076,1.32-0.975,1.313c-0.693-0.005-1.425-0.625-1.339-1.308c0.384-3.049-0.445-6.067-0.163-9.109
	c0.121-1.314,0.192-2.632,0.297-3.947c0.026-0.341,0.053-0.76,0.504-0.762c0.316,0,0.433,0.339,0.488,0.627
	c0.153,0.789,0.406,1.578,0.416,2.37c0.045,3.45,0.389,6.875,0.773,10.267C91.128,178.082,91.134,178.254,91.128,178.426z"/>
<path fill="#999999" d="M202.83,188.047c3.271-0.636,6.471-1.249,9.666-1.888c0.501-0.1,0.992-0.289,1.467-0.487
	c0.333-0.139,0.588-0.423,0.496-0.812c-0.098-0.409-0.461-0.487-0.825-0.425c-0.452,0.077-0.906,0.166-1.342,0.306
	c-2.954,0.948-5.874,2.001-8.883,2.769C203.188,187.566,202.956,187.626,202.83,188.047z"/>
<path fill="#EAEAEA" d="M162.157,143.047c3.035-0.183,6.042-0.656,9.075-0.894c2.281-0.179,4.577-0.282,6.852-0.587
	c4.372-0.587,8.675-1.792,13.149-1.485c0.519,0.035,1.022-0.135,1.483-0.391c0.566-0.314,0.569-0.814,0.42-1.345
	c-0.141-0.5-0.448-0.794-1.009-0.714c-2.283,0.327-4.607-0.051-6.871,0.283c-4.433,0.654-8.873,1.111-13.353,1.211
	c-0.514,0.011-1.045,0.023-1.539,0.149c-3.254,0.828-6.611,0.636-9.909,1.032c-2.617,0.313-5.259,0.411-7.89,0.6
	c-0.603,0.044-0.892,0.349-1.021,0.951c-0.354,1.63-0.018,2.057,1.936,2.019C156.215,143.55,159.178,143.227,162.157,143.047z"/>
<path fill="#616160" d="M201.354,136.551c-1.535,0.215-3.115,0-4.624,0.44c-0.867,0.253-1.09,0.693-0.941,1.541
	c0.136,0.767,0.663,0.846,1.45,0.792c1.026-0.216,2.23-0.25,3.438-0.302c0.938-0.04,1.619-1.295,1.227-2.146
	C201.797,136.642,201.599,136.517,201.354,136.551z"/>
<path fill="#8BBDD6" d="M201.343,119.897c-5.297-2.031-10.144-5.123-15.726-6.502c-1.464-0.362-2.758-0.646-4.166-0.04
	c-0.307,0.132-0.678,0.106-1.015,0.174c-2.892,0.582-5.841,0.453-8.76,0.657c-5.499,0.382-11.015,0.492-16.522,0.736
	c-2.583,0.115-5.168-0.039-7.75,0.351c-3.683,0.555-7.411,0.771-11.065,1.569c-1.221,0.267-2.529,0.108-3.777,0.29
	c-3.704,0.542-7.438,0.653-11.163,0.87c-2.868,0.167-5.741,0.005-8.613,0.344c-2.275,0.269-4.601,0.351-6.885,0.219
	c-2.951-0.172-5.872-0.069-8.756,0.461c-2.605,0.479-5.188,0.977-7.852,0.784c-0.34-0.024-0.688,0.047-1.032,0.08
	c-4.517,0.427-9.035,0.86-13.552,1.283c-5.202,0.486-10.418,0.854-15.602,1.484c-3.6,0.438-7.214,0.68-10.819,0.881
	c-4.829,0.269-9.582,1.148-14.399,1.444c-0.171,0.011-0.338,0.075-0.415,0.414c1.616,1.065,3.222,2.254,4.946,3.235
	c3.989,2.269,7.884,4.679,11.734,7.177c4.096,2.659,8.28,5.184,12.467,7.696c0.919,0.552,1.97,0.913,3.061,1.123
	c2.882,0.557,5.723,0.128,8.572-0.251c3.597-0.48,7.045-1.671,10.63-2.214c3.24-0.491,6.484-0.958,9.661-1.787
	c5.566-1.45,11.184-2.536,16.925-3.107c5.028-0.5,10-1.491,15.046-1.927c3.603-0.312,7.182-0.907,10.771-1.305
	c4.842-0.536,9.724-0.924,14.592-1.101c4.734-0.171,9.362-1.036,14.044-1.518c5.544-0.571,11.078-1.243,16.626-1.796
	c5.018-0.5,10.063-0.671,15.071-1.401c2.633-0.384,5.374-0.376,8.067-0.5c2.354-0.108,4.718-0.041,7.051-0.43
	c1.491-0.25,3.01-0.442,4.542-1.335c-2.194-1.113-4.248-2.016-6.393-2.581C207.59,122.505,204.509,121.11,201.343,119.897z"/>
<path fill="#EAEAEA" d="M207.006,131.326c-4.006,0.321-8.011-0.122-12.035,0.072c-5.575,0.269-11.131,0.757-16.674,1.287
	c-7.031,0.672-14.058,1.465-21.039,2.589c-0.452,0.072-0.92,0.114-1.376,0.084c-2.202-0.14-4.364,0.203-6.513,0.581
	c-5.21,0.918-10.475,1.451-15.722,2.062c-3.988,0.464-7.971,1-11.97,1.404c-3.017,0.305-6.014,0.89-9.01,1.441
	c-3.832,0.707-7.735,0.995-11.536,1.948c-1.498,0.375-3.075,0.423-4.592,0.735c-4.728,0.975-9.444,2.01-14.166,3.009
	c-2.194,0.464-4.369,1.012-6.592,1.353c-0.919,0.141-1.885,0.328-2.861,1.289c1.244,0.213,2.163,0.276,3.135,0.118
	c3.739-0.605,7.429-1.452,11.142-2.189c4.842-0.962,9.731-1.691,14.614-2.434c4.092-0.622,8.178-1.288,12.292-1.763
	c2.453-0.282,4.878-0.8,7.329-1.12c3.532-0.462,7.077-0.847,10.616-1.254c2.339-0.27,4.682-0.523,7.022-0.78
	c2.857-0.313,5.713-0.618,8.568-0.934c2.287-0.253,4.568-0.555,6.857-0.769c4.405-0.41,8.814-0.771,13.222-1.161
	c0.628-0.056,1.25-0.195,1.879-0.242c3.149-0.231,6.324-0.23,9.395-1.137c0.49-0.145,1.025-0.131,1.533-0.229
	c2.837-0.547,5.739-0.248,8.589-0.71c2.948-0.479,5.965-0.602,8.876-1.231c3.89-0.84,7.801-1.38,11.758-1.708
	C208.835,131.444,207.93,131.251,207.006,131.326z"/>
<path fill="#616160" d="M87.234,153.676c0.804-0.134,1.149-0.62,1.158-1.428c0.02-1.825-0.826-2.422-2.586-1.876
	c-1.208,0.375-1.258,1.333-1.321,2.314c-0.071,1.092,0.042,1.216,1.268,1.22C86.11,153.851,86.674,153.769,87.234,153.676z"/>
<path fill="#EAEAEA" d="M91.118,205.294c-2.143-2-4.301-4.008-6.711-5.674c-5.212-3.601-9.808-7.975-14.908-11.71
	c-0.588-0.43-0.903-0.978-0.834-1.769c0.357-4.115,0.879-8.215,1.046-12.35c0.068-1.722,0.257-3.438,0.193-5.167
	c-0.028-0.8,0.149-1.567,1.031-1.776c1.539-0.364,2.833-1.258,4.273-1.831c5.82-2.314,11.638-4.64,17.452-6.971
	c0.368-0.147,0.742-0.333,1.045-0.583c0.411-0.335,0.707-0.77,0.526-1.356c-0.184-0.595-0.649-0.759-1.207-0.772
	c-0.75-0.018-1.497,0.017-2.223,0.228c-2.555,0.742-5.219,0.814-7.819,1.271c-1.673,0.293-2.365-0.604-1.751-2.226
	c0.261-0.692,0.245-1.346,0.174-2.028c-0.109-1.06-0.292-1.26-1.301-0.988c-3.192,0.858-6.552,1.203-9.337,3.299
	c-1.243,0.935-2.18,0.507-2.541-0.993c-0.227-0.944-0.339-1.925-0.412-2.896c-0.105-1.396-0.807-2.271-2.016-2.963
	c-3.539-2.029-7.027-4.152-10.534-6.239c-1.996-1.188-1.994-1.188-2.216,1.045c-0.023,0.229-0.092,0.453-0.105,0.682
	c-0.166,2.868-0.864,5.673-0.843,8.574c0.024,2.982,0.091,5.966-0.207,8.957c-0.496,4.973-0.784,9.967-1.152,14.953
	c-0.082,1.098,0.102,2.16,0.339,3.24c0.389,1.778,1.263,3.328,2.057,4.918c1.669,3.344,3.974,6.224,6.918,8.489
	c1.809,1.392,3.711,2.689,5.718,3.837c3.099,1.771,6.314,3.289,9.579,4.7c2.425,1.045,4.908,1.958,7.372,2.916
	c2.143,0.83,4.25,1.765,6.48,2.354c1.248,0.331,2.517,0.586,4.05,0.938C92.692,206.238,91.766,205.897,91.118,205.294z"/>
<path fill="#EAEAEA" d="M104.417,32.254c0.258,0.343,0.704,0.384,1.107,0.386c0.631,0.004,1.263-0.012,1.892-0.069
	c1.943-0.179,3.878-0.438,5.83,0.003c0.847,0.192,1.682-0.06,2.455-0.334c0.052-0.417-0.173-0.623-0.32-0.861
	c-0.825-1.336-2.223-2.192-3.052-3.493c-1.113-1.748-2.48-2.375-4.588-2.102c-1.98,0.255-4.013,0.226-6.015,0.412
	c-1.196,0.111-1.181,0.247-0.776,1.408C101.622,29.535,103.251,30.713,104.417,32.254z"/>
<path fill="#EAEAEA" d="M110.443,34.21c-1.661,0.131-3.323,0.207-4.984,0.323c-0.979,0.068-1.562,0.859-1.427,1.773
	c0.13,0.877,0.832,0.806,1.643,0.86c1.857-0.427,3.938-0.326,5.997-0.514c1.315-0.12,2.643-0.113,3.95-0.289
	c1.25-0.168,1.468-0.508,1.321-1.537c-0.155-1.07-0.391-1.271-1.699-1.031C113.65,34.088,112.044,34.084,110.443,34.21z"/>
<path fill="#EAEAEA" d="M96.035,92.744c0.288,4.409,0.253,8.825,0.552,13.231c0.203,2.987-0.234,5.967-0.393,8.95
	c-0.042,0.785,0.206,1.09,0.912,1.083c0.746-0.006,1.495-0.044,2.238-0.119c1.097-0.11,1.25-0.281,1.248-1.423
	c0-2.062-0.121-4.121-0.184-6.179c-0.194-6.208-0.281-12.418-0.362-18.629c-0.042-3.218,0.011-6.437,0.031-9.655
	c0.002-0.332-0.028-0.782,0.41-0.831c0.43-0.047,0.499,0.39,0.587,0.713c0.4,1.46,0.384,2.959,0.436,4.454
	c0.015,0.445-0.163,0.96,0.238,1.416c0.339-0.484,0.145-0.883,0.116-1.271c-0.104-1.378-0.136-2.759-0.027-4.137
	c0.256-3.209,0.272-6.426,0.258-9.639c-0.005-1.075-0.053-2.206-0.605-3.468c-0.661,1.638-0.618,3.163-1.183,4.583
	c-0.371-0.524-0.324-1.096-0.285-1.648c0.295-4.245,0.263-8.497,0.287-12.747c0.025-4.298-0.343-8.601,0.298-12.892
	c0.167-1.124,0.083-2.301-0.015-3.443c-0.104-1.179-0.657-1.521-1.749-1.29c-0.638,0.135-0.974,0.439-0.999,1.167
	c-0.058,1.661,0.049,3.391-0.389,4.959c-0.551,1.975-0.776,3.935-0.807,5.95c-0.034,2.243-0.016,4.488-0.125,6.728
	c-0.142,2.924-0.494,5.842-0.563,8.767c-0.105,4.486-0.062,8.976-0.054,13.463C95.913,84.808,95.776,88.79,96.035,92.744z"/>
<path fill="#999999" d="M110.318,205.196c-1.061,0.245-2.1,0.675-3.171,0.779c-2.077,0.204-3.974,1.104-6.028,1.391
	c-0.771,0.107-1.498,0.558-2.236,0.875c-0.833,0.358-1.162,1.055-1.229,1.918c-0.069,0.87,0.1,1.12,0.926,0.971
	c4.062-0.731,8.157-1.318,12.132-2.469c1.229-0.355,1.322-0.575,1.355-2.027C112.106,204.978,111.934,204.823,110.318,205.196z"/>
<path fill="#EE7118" d="M171.535,192.447c-1.645,0.133-3.263,0.389-4.767,1.055C168.401,193.268,170.07,193.292,171.535,192.447z"/>
<path fill="#EAEAEA" d="M96.972,35.234c-0.044,1.15,0.836,2.043,1.977,2.254c0.556,0.103,1.143,0.1,1.711,0.074
	c1.432-0.064,1.8-0.493,1.696-1.939c-0.025-0.338-0.078-0.699-0.223-0.998c-1.124-2.315-2.025-4.749-3.585-6.832
	c-0.273-0.364-0.57-0.721-0.908-1.021c-0.459-0.405-0.81-0.247-1.075,0.285c-0.282,0.568-0.1,1.122-0.037,1.536
	C96.327,30.926,97.059,33.047,96.972,35.234z"/>
<path fill="#EAEAEA" d="M92.5,152.61c0.172-0.017,0.343-0.036,0.516-0.053c2.698-0.183,5.355-0.668,8.023-1.079
	c4.2-0.647,8.449-0.954,12.603-1.931c1.562-0.368,3.164-0.592,4.76-0.783c3.879-0.462,7.768-0.854,11.648-1.302
	c1.883-0.217,3.756-0.524,5.639-0.738c0.932-0.105,1.324-0.582,1.287-1.476c-0.017-0.401-0.074-0.801-0.079-1.202
	c-0.008-0.911-0.513-1.131-1.342-1.142c-1.107-0.015-2.166,0.271-3.251,0.364c-5.149,0.442-10.3,0.96-15.381,1.887
	c-3.223,0.589-6.48,0.952-9.709,1.39c-3.83,0.519-7.524,1.548-11.294,2.263c-1.298,0.247-2.624,0.328-3.904,0.669
	c-1.131,0.301-1.453,0.98-1.229,2.395C90.979,153.086,91.797,152.677,92.5,152.61z"/>
<path fill="#1D71B8" d="M221.229,123.955c-1.055-0.463-2.136-0.886-3.101-1.497c-3.565-2.252-7.41-3.935-11.255-5.604
	c-4.427-1.922-8.882-3.778-13.367-5.553c-1.994-0.789-3.837-1.836-5.699-2.858c-1.284-0.706-2.528-0.963-3.945-0.406
	c-1.12,0.44-2.292,0.81-3.503,0.881c-2.985,0.176-5.958,0.568-8.957,0.469c-0.808-0.027-1.601,0.062-2.4,0.205
	c-6.461,1.157-12.978,1.991-19.53,2.095c-6.344,0.101-12.586,1.082-18.874,1.631c-4.689,0.411-9.376,0.897-14.071,1.28
	c-1.542,0.125-1.583,0.046-1.547-1.411c0.094-3.794-0.007-7.586-0.138-11.378c-0.04-1.148-0.283-2.279-0.248-3.439
	c0.11-3.555,0.114-7.114,0.21-10.671c0.085-3.208-0.149-6.425,0.055-9.644c0.14-2.234-0.04-4.493,0.182-6.714
	c0.243-2.417,0.36-4.792-0.01-7.208c-0.292-1.924-0.001-2.197,1.882-2.481c0.513-0.078,1.027-0.134,1.542-0.188
	c1.498-0.159,1.552-0.155,1.509,1.367c-0.131,4.538-0.382,9.072-0.229,13.614c0.02,0.574-0.013,1.163,0.104,1.718
	c0.306,1.449,1.43,2.068,2.823,1.539c1.558-0.591,2.997-1.482,4.521-2.113c1.811-0.749,3.234-2.899,5.643-1.814
	c0.045,0.021,0.113-0.012,0.17-0.017c0.625-0.062,0.811,0.324,0.819,0.845c0.015,0.748-0.091,1.487-0.167,2.231
	c-0.115,1.148,0.921,2.012,2.002,1.684c1.095-0.333,2.153-0.784,3.228-1.183c2.847-1.059,5.67-2.191,8.549-3.154
	c2.459-0.821,4.063-2.228,4.43-4.92c0.319-2.348,0.379-4.681,0.291-7.048c-0.069-1.826-0.519-3.795,0.899-5.35
	c-0.738-1.987-2.484-2.062-4.359-2.172c0.498-0.73,1.117-0.851,1.533-1.236c0.982-0.911,1.974-0.903,3.133-0.288
	c1.471,0.779,3.006,1.443,4.531,2.114c1.065,0.468,1.753,0.298,2.29-0.461c0.492-0.695,0.337-1.119-0.554-2.052
	c-0.972-1.019-2.247-1.593-3.355-2.407c-2.035-1.492-2.206-0.923-1.246-3.716c0.763-2.224,1.413-4.486,2.446-6.618
	c0.679-1.399-0.084-2.927-1.474-2.928c-1.016,0-1.43-0.409-1.801-1.223c-0.451-0.986-1.316-1.386-2.39-1.39
	c-0.703-0.002-1.397,0.059-2.014,0.392c-1.055,0.568-2.177,0.661-3.343,0.653c-2.012-0.014-4.024,0.002-6.037,0.148
	c-1.197,0.086-2.422-0.015-3.473-0.752c-0.291-0.203-0.607-0.347-0.968-0.278c-1.458,0.279-2.946,0.387-4.073,1.619
	c-1.14,1.248-2.646,1.792-4.354,1.724c-0.575-0.023-1.152,0.01-1.727-0.016c-1.553-0.07-2.841,0.277-3.487,1.908
	c-0.233,0.588-0.649,1.052-1.435,1.024c-1.859-0.066-3.61,0.233-5.035,1.602c-0.478,0.458-0.823,0.291-0.883-0.373
	c-0.123-1.333,0.167-2.635,0.355-3.943c0.212-1.476,0.22-1.475,1.595-1.827c1.585-0.405,1.973-0.9,1.918-2.507
	c-0.034-0.978-0.132-1.953-0.145-2.93c-0.01-0.732-0.273-1.298-0.736-1.866c-1.845-2.261-4.184-4.116-5.531-6.795
	c-0.393-0.782-1.155-0.888-2.074-0.826c-2.348,0.157-4.676,0.708-7.032,0.547c-2.42-0.164-4.823,0-7.231,0.094
	c-1.685,0.066-2.156,0.591-2.004,2.247c0.144,1.545,0.318,3.08,0.08,4.634c-0.077,0.504-0.076,1.054,0.041,1.548
	c0.448,1.891,0.166,3.587-0.908,5.25c-0.874,1.354-0.87,2.927,0.105,4.224c0.658,0.876,0.772,1.744,0.747,2.732
	c-0.019,0.748,0.003,1.496-0.004,2.244c-0.029,3.162-0.049,6.311-0.592,9.456c-0.299,1.737-0.677,3.505-0.594,5.3
	c0.165,3.506,0.097,7.014,0.038,10.52c-0.024,1.378,0.115,2.75-0.007,4.136c-0.396,4.478-0.29,8.971-0.078,13.449
	c0.09,1.903,0.093,3.788-0.021,5.677c-0.219,3.676-0.209,7.355-0.188,11.034c0.014,2.759,0.294,5.523-0.162,8.27
	c-0.227,1.373-0.423,1.57-1.725,1.718c-5.08,0.578-10.128,1.385-15.255,1.603c-2.39,0.102-4.828,0.254-7.188,0.702
	c-5.436,1.03-10.94,1.417-16.427,1.954c-3.888,0.381-7.776,0.78-11.664,1.151c-3.422,0.325-6.809,0.989-10.274,0.735
	c-0.441-0.032-0.908,0.135-1.348,0.261c-1.231,0.354-1.449,0.589-1.236,1.834c0.24,1.418,0.434,2.832,0.508,4.27
	c0.033,0.616,0.281,1.234,0.505,1.824c0.513,1.35,1.07,1.734,2.495,1.563c2.524-0.304,5.062-0.124,7.586-0.289
	c0.551-0.036,0.999,0.146,1.458,0.416c1.931,1.139,3.843,2.316,5.826,3.358c1.006,0.528,1.318,1.218,1.428,2.308
	c0.213,2.122,0.055,4.279,0.386,6.361c0.514,3.219-0.266,6.425,0.184,9.625c0.11,0.778-0.296,1.306-1.128,1.461
	c-1.634,0.306-3.251,0.815-4.896,0.926c-3.861,0.259-7.596,1.259-11.412,1.787c-1.754,0.243-3.527,0.452-5.28,0.789
	c-2.93,0.561-5.896,0.995-8.891,1.086c-2.167,0.066-2.6,0.481-2.565,2.655c0.004,0.288,0.018,0.576,0.051,0.861
	c0.704,6.107,0.994,12.245,1.406,18.375c0.197,2.923,0.322,5.852,0.492,8.777c0.038,0.636,0.102,1.319,0.571,1.774
	c0.978,0.948,1.571,2.106,2.105,3.328c0.359,0.823,1.053,1.271,1.948,1.09c1.865-0.378,3.771-0.201,5.647-0.604
	c2.696-0.58,5.47-0.63,8.223-0.838c2.855-0.215,5.716-0.549,8.535-1.111c1.022-0.202,2.032,0.302,3.076-0.046
	c1.446-0.483,2.837-0.17,4.146,0.566c2.456,1.381,5.109,2.346,7.64,3.58c3.447,1.682,7.205,2.673,10.697,4.297
	c0.051,0.023,0.114,0.02,0.168,0.037c2.36,0.725,4.719,1.502,6.989,2.42c5.328,2.155,10.76,4.04,16.063,6.258
	c0.85,0.356,1.482,0.841,1.889,1.652c0.205,0.412,0.409,0.827,0.656,1.214c0.412,0.645,0.95,0.904,1.761,0.68
	c1.827-0.503,3.683-0.903,5.514-1.391c4.052-1.077,8.065-2.321,12.299-2.531c1.002-0.051,1.276-0.439,1.244-1.465
	c-0.007-0.229-0.079-0.455-0.09-0.685c-0.049-1.074,0.11-1.336,1.154-1.557c1.405-0.296,2.82-0.556,4.241-0.78
	c4.891-0.771,9.664-2.077,14.487-3.159c3.816-0.856,7.533-2.081,11.377-2.85c2.307-0.461,4.649-0.796,6.921-1.397
	c2.282-0.603,4.595-1.037,6.894-1.54c4.996-1.095,10.05-1.917,15.021-3.16c3.732-0.933,7.495-1.749,11.253-2.57
	c3.485-0.76,6.981-1.465,10.474-2.176c0.901-0.183,1.813-0.309,2.725-0.44c0.42-0.061,0.809-0.009,0.977,0.482
	c0.449,1.313,1.416,1.232,2.533,1.032c4.079-0.73,8.097-1.719,12.125-2.671c1.424-0.336,2.023-1.013,2.354-2.302
	c0.22-0.858-0.204-1.553-0.28-2.313c-0.23-2.334-1.46-3.497-3.531-4.568c-4.329-2.239-8.454-4.873-12.815-7.083
	c-3.739-1.895-7.276-4.187-11.144-5.833c-1.248-0.531-1.798-1.353-1.63-2.68c0.44-3.493,0.223-7.01,0.373-10.514
	c0.037-0.857,0.189-1.713,0.318-2.565c0.182-1.2,0.308-1.346,1.532-1.359c2.093-0.024,4.026-0.383,5.905-1.482
	c1.215-0.712,1.563-1.542,1.53-2.759c-0.02-0.689-0.067-1.379-0.112-2.068c-0.038-0.573,0.226-0.862,0.794-0.882
	c0.978-0.036,1.955-0.109,2.931-0.095c1.16,0.017,2.305-0.101,3.429-0.34c1.044-0.222,1.389-0.935,0.999-1.929
	c-0.104-0.262-0.319-0.478-0.445-0.733c-0.642-1.3-0.174-2.088,1.3-2.169c0.745-0.042,1.492,0.027,2.236-0.125
	c1.865-0.381,3.745-0.565,5.657-0.519c2.359,0.056,4.634-0.752,6.998-0.769c0.864-0.005,1.313-0.567,1.395-1.454
	c0.085-0.924,0.105-1.855-0.062-2.754c-0.209-1.131,0.035-2.128,0.416-3.183C223.967,125.162,223.39,124.904,221.229,123.955z
	 M17.838,191.751c-0.909-8.721-0.647-17.31-0.654-25.897c0.449,0.039,0.55,0.421,0.583,0.735c0.213,1.994,0.548,3.979,0.329,6.002
	c-0.361,3.322-0.246,6.642-0.014,9.974c0.203,2.917,0.15,5.852,0.198,8.778C18.28,191.413,18.132,191.486,17.838,191.751z
	 M18.821,162.719c1.235-0.756,2.364-1.005,3.502-1.093c5.433-0.419,10.837-1.076,16.225-1.88c2.662-0.396,5.251,0.16,7.86,0.479
	c0.206,0.025,0.454,0.09,0.5,0.488c-8.727,0.668-17.402,1.84-26.137,2.388C20.224,163.135,19.66,162.892,18.821,162.719z
	 M47.626,179.632c0.026,2.702,0.016,5.424-1.639,7.791c-0.263,0.376-0.441,0.822-0.828,1.091c-3.173,2.214-6.382,4.23-10.465,4.436
	c-2.917,0.147-5.815,0.719-8.721,1.097c-1.139,0.148-2.281,0.287-3.421,0.424c-1.366,0.165-1.528,0.053-1.539-1.307
	c-0.023-2.76-0.009-5.522-0.01-8.283c0-0.633,0-1.265,0-1.898c0.005,0,0.009,0,0.013,0c0-2.992-0.012-5.983,0.008-8.974
	c0.006-0.803,0.018-1.625,0.19-2.402c0.447-2.022,1.516-3.449,3.586-4.256c3.833-1.496,7.849-2.171,11.823-3.076
	c3.153-0.718,6.351-0.867,9.549-1.101c1.197-0.088,1.274-0.017,1.369,1.158c0.139,1.712,0.179,3.405,0.035,5.14
	C47.296,172.845,47.594,176.243,47.626,179.632z M129.537,73.5c-0.465,0.668-1.095,1.152-1.759,1.609
	c-1.332,0.913-2.845,1.442-4.078,2.081c-0.708,0.095-0.815-0.229-0.802-0.6c0.027-0.742,0.396-1.395,1.007-1.702
	c1.63-0.818,3.314-1.524,4.987-2.254c0.253-0.111,0.589-0.18,0.791,0.094C129.886,73.001,129.7,73.266,129.537,73.5z
	 M132.977,73.458c-0.348,0.004-0.729-0.031-0.788-0.472c-0.047-0.356,0.115-0.668,0.41-0.894c0.292-0.223,0.64-0.246,0.982-0.232
	c2.461,0.097,4.915-0.093,7.373-0.174c0.088-0.003,0.181,0.099,0.423,0.24C138.597,72.992,135.825,73.424,132.977,73.458z
	 M141.233,74.983c-0.854,0.316-1.783,0.4-2.63,0.79c-0.305,0.14-0.857,0.441-1.019-0.134c-0.135-0.481,0.396-0.631,0.763-0.768
	c0.751-0.281,1.505-0.569,2.276-0.79c1.363-0.389,2.66-1.049,4.176-0.964C143.844,74.208,142.491,74.518,141.233,74.983z
	 M148.789,64.533c-0.267,0.541-0.38,1.036-0.457,1.603c-0.25,1.831-1.824,3.227-3.68,3.123c-1.893-0.106-3.777-0.128-5.671-0.101
	c-1.103,0.016-2.156,0.326-3.244,0.354c-1.838,0.048-2.124-0.231-2.129-2.031c0-0.345,0-0.689,0-1.412
	c-0.253-1.289,0.54-2.773,0.848-4.338c0.167-0.849,0.756-1.243,1.607-1.279c3.679-0.16,7.353-0.096,11.013,0.304
	C148.615,60.923,149.566,62.958,148.789,64.533z M143.324,43.646c0.821-0.054,1.718,0.62,1.748,1.312
	c0.033,0.746-1.058,1.752-1.978,1.828c-0.826,0.067-1.525-0.511-1.516-1.257C141.586,44.802,142.615,43.692,143.324,43.646z
	 M136.445,41.8c0.799-0.075,1.608-0.063,2.413-0.057c0.451,0.004,0.923-0.088,1.438,0.208c-0.013,0.592-0.275,1.156-0.464,1.736
	c-0.122,0.38-0.309,0.752-0.36,1.142c-0.267,2.032,0.874,3.655,2.708,3.903c2.445,0.331,4.542-1.026,4.806-3.111
	c0.069-0.537-0.079-1.034-0.34-1.488c-0.399-0.693-0.831-1.367-1.36-2.232c1.891-0.456,3.644-0.584,5.43-0.363
	c0.968,0.12,1.944,0.165,2.918,0.247c0.666,0.056,0.927,0.423,0.73,1.057c-0.733,2.36-1.47,4.721-2.47,6.987
	c-0.405,0.916-1.25,1.338-2.121,1.651c-0.863,0.311-1.759,0.519-2.69,0.558c-1.608,0.068-3.212,0.128-4.817,0.301
	c-2.333,0.252-3.812-0.942-4.735-3.137c-0.802-1.909-1.512-3.836-2.081-5.821C135.098,42.166,135.238,41.915,136.445,41.8z
	 M135.715,54.883c2.58-0.009,5.161-0.036,7.741-0.046c0.15,0,0.301,0.077,0.675,0.181c-3.483,1.603-6.916,2.063-10.764,1.672
	C133.948,55.507,134.593,54.887,135.715,54.883z M131.286,43.501c0.925-0.04,2.355,1.358,2.42,2.364
	c0.049,0.768-1.132,1.609-2.312,1.647c-1.162,0.038-1.905-0.609-1.946-1.695C129.402,44.611,130.248,43.546,131.286,43.501z
	 M125.349,45.182c0.053-0.108,0.295-0.184,0.444-0.174c0.486,0.03,0.652,0.391,0.743,0.81c0.659,3.015,2.955,4.018,5.621,4.494
	c1.19,0.213,1.494,0.603,0.753,1.44c-1.807,2.04-3.82,3.784-7.058,3.962c0.585-0.848,0.91-1.503,1.166-2.205
	c0.902-2.472,0.338-4.714-0.979-6.858c-0.09-0.146-0.205-0.277-0.286-0.427C125.57,45.891,125.118,45.646,125.349,45.182z
	 M129.261,62.116c1.017-0.535,1.293-0.315,1.234,0.877c-0.023,0.457-0.093,0.912-0.156,1.519c0.055,0.655,0.113,1.455,0.192,2.252
	c0.202,1.979-0.306,2.522-2.01,3.586c-1.227,0.766-2.517,1.343-3.79,1.972c-1.276,0.629-1.987,0.132-1.929-1.263
	c0.059-1.431,0.069-2.867,0.371-4.28c0.097-0.451,0.154-0.882,0.574-1.196C125.493,64.279,127.336,63.129,129.261,62.116z
	 M115.796,51.66c0.105-0.322,0.114-0.676,0.156-1.017c0.361-2.933,1.706-4.128,4.979-4.119c0.173,0.014,0.697,0.003,1.196,0.107
	c1.138,0.237,1.886,1.116,2.008,2.266c0.285,2.677-0.911,4.829-2.662,6.622c-1.498,1.533-4.205,0.745-5.31-1.38
	C115.766,53.369,115.505,52.556,115.796,51.66z M118.178,58.66c-0.354,0.538-0.775,0.548-1.157,0.565
	c-1.892,0.085-3.756,0.499-5.657,0.443c-1.106-0.032-2.154,0.287-3.221,0.506c-0.5,0.103-1.025,0.108-1.54,0.116
	c-0.575,0.009-0.85-0.307-0.762-0.877c0.203-1.314,0.029-2.638,0.121-3.953c0.084-1.209,0.329-1.435,1.553-1.645
	c1.53-0.262,3.077-0.228,4.619-0.286c0.479-0.018,0.957,0.062,1.186,0.532C114.358,56.198,115.931,57.782,118.178,58.66z
	 M104.274,97.551c-0.282-1.766-0.113-3.569,0.054-5.341c0.576-6.086,0.177-12.179,0.221-18.269c0.01-1.265-0.025-2.53-0.008-3.796
	c0.005-0.396-0.004-0.868,0.193-1.174c0.873-1.339,0.933-2.802,0.835-4.316c-0.058-0.863,0.261-1.405,1.231-1.517
	c0.853-0.099,1.691-0.35,2.562-0.321c1.068,0.036,1.301,0.241,1.335,1.34c0.03,0.977,0.062,1.969-0.077,2.929
	c-0.198,1.377-0.228,2.753-0.194,4.131c0.096,3.975-0.301,7.921-0.61,11.874c-0.08,1.017,0.156,2.054,0.186,3.084
	c0.082,2.933-0.427,5.843-0.337,8.783c0.103,3.331-0.15,6.67,0.272,9.996c0.09,0.717,0.013,1.457,0.013,2.186
	c0.16,0.011,0.32,0.022,0.48,0.032c1.613-8.924,1.576-17.977,1.889-27.007c0.138,3.137,0.209,6.274-0.027,9.403
	c-0.187,2.474-0.137,4.934-0.014,7.406c0.198,4.019,0.318,8.042,0.447,12.064c0.047,1.495,0.025,2.992,0.032,4.487
	c0.002,0.691-0.17,1.223-0.978,1.382c-2.039,0.401-4.103,0.53-6.169,0.645c-0.772,0.043-0.917-0.433-0.917-1.122
	c0-2.7-0.033-5.4-0.084-8.101C104.55,103.404,104.742,100.472,104.274,97.551z M103.292,46.434c0.144,2.179,0.344,4.337-0.443,6.468
	c-0.27,0.73-0.318,1.589-0.272,2.378c0.18,3.224-0.668,6.379-0.579,9.593c0.007,0.264,0.016,0.59-0.578,0.843
	c0.482-1.913,0.374-3.721,0.396-5.526c0.017-1.493,0.019-2.985,0.236-4.469c0.219-1.498-0.303-2.971-0.191-4.463
	c0.186-2.501,0.396-5.001,0.642-7.497c0.086-0.863,0.03-1.719,0.055-2.577c0.03-0.979,0.089-1.001,1.271-0.839
	c0.002-0.006,0.003-0.013,0.006-0.019c0.011,0.001,0.021,0.003,0.033,0.005c0.455-0.477,1.063-0.671,1.671-0.775
	c2.035-0.346,4.071-0.71,6.153-0.599c0.762,0.041,1.41,0.188,1.406,1.119c-0.007,1.826,0.152,3.662-0.24,5.566
	c-0.136-0.311,0.033,0.003-0.187-0.06c-0.045-0.013-0.109-0.064-0.114-0.103c-0.119-1.198-0.24-2.395-0.345-3.594
	c-0.055-0.626,0.041-1.267-0.194-1.875c-0.085-0.224-0.238-0.44-0.469-0.449c-0.354-0.014-0.472,0.275-0.492,0.579
	c-0.126,1.831-0.278,3.662-0.353,5.495c-0.059,1.434,0.021,2.873-0.034,4.307c-0.052,1.357-0.291,1.576-1.626,1.704
	c-0.742,0.072-1.487,0.072-2.219,0.263c-0.783,0.206-1.339-0.211-1.281-0.949c0.129-1.674-0.533-3.265-0.382-4.932
	c0.135-1.481-0.258-2.958,0.007-4.461c0.148-0.832-0.562-1.141-1.302-1.238c-0.006,0.006-0.013,0.01-0.019,0.016
	c-0.008-0.001-0.013-0.001-0.021-0.002C103.048,42.32,103.155,44.381,103.292,46.434z M102.417,115.152c0-1.604,0-3.209,0-4.825
	C102.817,111.408,102.87,113.658,102.417,115.152z M112.663,74.402c-0.236-3.132,0.05-6.263,0.052-9.562
	C113.755,68.099,112.451,71.243,112.663,74.402z M116.943,34.827c0.147,1.028-0.071,1.369-1.321,1.537
	c-1.307,0.175-2.635,0.168-3.95,0.289c-2.059,0.188-4.14,0.086-5.997,0.514c-0.811-0.054-1.513,0.017-1.643-0.86
	c-0.135-0.914,0.447-1.705,1.427-1.773c1.661-0.116,3.323-0.192,4.984-0.323c1.602-0.126,3.208-0.123,4.801-0.414
	C116.552,33.557,116.788,33.757,116.943,34.827z M101.724,26.195c2.002-0.186,4.035-0.157,6.015-0.412
	c2.108-0.273,3.475,0.354,4.588,2.102c0.829,1.301,2.227,2.157,3.052,3.493c0.147,0.238,0.373,0.445,0.32,0.861
	c-0.772,0.275-1.607,0.526-2.455,0.334c-1.952-0.441-3.886-0.182-5.83-0.003c-0.628,0.058-1.261,0.073-1.892,0.069
	c-0.403-0.002-0.849-0.043-1.107-0.386c-1.165-1.541-2.795-2.719-3.468-4.65C100.543,26.442,100.528,26.307,101.724,26.195z
	 M96.564,27.058c0.265-0.532,0.615-0.69,1.075-0.285c0.338,0.3,0.635,0.657,0.908,1.021c1.561,2.083,2.461,4.517,3.585,6.832
	c0.145,0.299,0.198,0.66,0.223,0.998c0.104,1.446-0.264,1.875-1.696,1.939c-0.569,0.026-1.155,0.029-1.711-0.074
	c-1.141-0.211-2.021-1.104-1.977-2.254c0.087-2.188-0.645-4.308-0.444-6.641C96.464,28.179,96.282,27.626,96.564,27.058z
	 M95.959,67.375c0.07-2.925,0.421-5.842,0.563-8.767c0.109-2.239,0.091-4.484,0.125-6.728c0.031-2.016,0.255-3.975,0.807-5.95
	c0.438-1.569,0.331-3.299,0.389-4.959c0.025-0.728,0.361-1.032,0.999-1.167c1.092-0.231,1.644,0.111,1.749,1.29
	c0.098,1.142,0.182,2.32,0.015,3.443c-0.641,4.292-0.272,8.594-0.298,12.892c-0.024,4.25,0.008,8.502-0.287,12.747
	c-0.039,0.553-0.086,1.124,0.285,1.648c0.565-1.42,0.522-2.945,1.183-4.583c0.552,1.262,0.6,2.393,0.605,3.468
	c0.014,3.213-0.002,6.43-0.258,9.639c-0.109,1.377-0.078,2.759,0.027,4.137c0.029,0.389,0.223,0.787-0.116,1.271
	c-0.401-0.455-0.223-0.971-0.238-1.416c-0.052-1.495-0.036-2.994-0.436-4.454c-0.088-0.324-0.157-0.761-0.587-0.713
	c-0.438,0.049-0.407,0.499-0.41,0.831c-0.02,3.218-0.074,6.437-0.031,9.655c0.081,6.21,0.168,12.421,0.362,18.629
	c0.063,2.059,0.184,4.118,0.184,6.179c0.001,1.142-0.151,1.313-1.248,1.423c-0.743,0.075-1.492,0.113-2.238,0.119
	c-0.707,0.006-0.954-0.299-0.912-1.083c0.159-2.982,0.596-5.962,0.393-8.95c-0.299-4.406-0.264-8.822-0.552-13.231
	c-0.259-3.955-0.122-7.936-0.129-11.906C95.897,76.351,95.854,71.861,95.959,67.375z M89.206,206.464
	c-2.23-0.588-4.337-1.523-6.48-2.354c-2.464-0.957-4.946-1.87-7.372-2.916c-3.265-1.411-6.48-2.928-9.579-4.7
	c-2.006-1.148-3.909-2.446-5.718-3.837c-2.945-2.265-5.249-5.145-6.918-8.489c-0.794-1.59-1.668-3.141-2.057-4.918
	c-0.237-1.08-0.42-2.142-0.339-3.24c0.368-4.986,0.657-9.979,1.152-14.953c0.298-2.991,0.23-5.974,0.207-8.957
	c-0.021-2.901,0.677-5.706,0.843-8.574c0.014-0.229,0.083-0.453,0.105-0.682c0.222-2.233,0.22-2.233,2.216-1.045
	c3.507,2.086,6.995,4.21,10.534,6.239c1.209,0.692,1.91,1.566,2.016,2.963c0.073,0.971,0.185,1.952,0.412,2.896
	c0.361,1.5,1.297,1.928,2.541,0.993c2.785-2.096,6.145-2.44,9.337-3.299c1.008-0.271,1.191-0.072,1.301,0.988
	c0.07,0.682,0.087,1.336-0.174,2.028c-0.614,1.622,0.078,2.519,1.751,2.226c2.601-0.457,5.265-0.529,7.819-1.271
	c0.727-0.21,1.473-0.245,2.223-0.228c0.558,0.013,1.023,0.177,1.207,0.772c0.181,0.586-0.115,1.021-0.526,1.356
	c-0.303,0.249-0.677,0.435-1.045,0.583c-5.814,2.332-11.632,4.657-17.452,6.971c-1.44,0.573-2.734,1.466-4.273,1.831
	c-0.882,0.208-1.059,0.976-1.031,1.776c0.063,1.729-0.125,3.445-0.193,5.167c-0.167,4.134-0.689,8.234-1.046,12.35
	c-0.069,0.792,0.246,1.339,0.834,1.769c5.1,3.735,9.696,8.109,14.908,11.71c2.41,1.667,4.568,3.675,6.711,5.674
	c0.648,0.604,1.574,0.944,2.137,2.107C91.722,207.05,90.454,206.794,89.206,206.464z M84.484,152.686
	c0.063-0.981,0.114-1.939,1.321-2.314c1.76-0.546,2.606,0.051,2.586,1.876c-0.008,0.808-0.354,1.294-1.158,1.428
	c-0.561,0.093-1.124,0.175-1.482,0.23C84.527,153.902,84.413,153.777,84.484,152.686z M92.017,149.477
	c1.28-0.341,2.605-0.423,3.904-0.669c3.77-0.714,7.464-1.744,11.294-2.263c3.229-0.438,6.486-0.801,9.709-1.39
	c5.081-0.927,10.231-1.444,15.381-1.887c1.086-0.093,2.144-0.378,3.251-0.364c0.829,0.01,1.333,0.231,1.342,1.142
	c0.004,0.401,0.062,0.801,0.079,1.202c0.037,0.894-0.355,1.371-1.287,1.476c-1.883,0.213-3.756,0.521-5.639,0.738
	c-3.881,0.448-7.769,0.839-11.648,1.302c-1.596,0.191-3.198,0.416-4.76,0.783c-4.154,0.977-8.403,1.284-12.603,1.931
	c-2.668,0.411-5.325,0.896-8.023,1.079c-0.173,0.018-0.344,0.037-0.516,0.053c-0.704,0.067-1.521,0.477-1.713-0.738
	C90.564,150.458,90.886,149.778,92.017,149.477z M112.067,206.634c-0.033,1.453-0.126,1.672-1.355,2.027
	c-3.975,1.151-8.07,1.738-12.132,2.469c-0.826,0.149-0.995-0.102-0.926-0.971c0.067-0.863,0.396-1.56,1.229-1.918
	c0.738-0.318,1.464-0.769,2.236-0.875c2.054-0.287,3.951-1.188,6.028-1.391c1.072-0.104,2.11-0.534,3.171-0.779
	C111.934,204.823,112.106,204.978,112.067,206.634z M166.769,193.502c1.503-0.667,3.122-0.922,4.767-1.055
	C170.07,193.292,168.401,193.268,166.769,193.502z M213.634,184.436c0.364-0.062,0.727,0.016,0.825,0.425
	c0.093,0.389-0.163,0.673-0.496,0.812c-0.476,0.198-0.966,0.387-1.467,0.487c-3.195,0.639-6.395,1.252-9.666,1.888
	c0.126-0.421,0.358-0.48,0.579-0.537c3.01-0.768,5.93-1.821,8.883-2.769C212.728,184.602,213.182,184.513,213.634,184.436z
	 M191.329,170.66c2.061,0.884,3.862,2.272,6.035,2.903c3.024,0.877,5.576,2.699,8.285,4.206c1.607,0.894,3.224,1.775,4.83,2.672
	c0.347,0.194,0.726,0.36,0.935,0.727c0.026,0.325-0.219,0.386-0.433,0.43c-3.097,0.635-6.195,1.263-9.295,1.888
	c-0.765,0.154-1.363-0.076-2.064-0.507c-4.412-2.703-8.569-5.785-12.9-8.607c-2.601-1.694-5.187-3.365-8.015-4.649
	c-0.52-0.236-0.983-0.593-1.487-0.869c-0.257-0.141-0.567-0.215-0.745,0.106c-0.127,0.232,0.055,0.44,0.215,0.605
	c0.118,0.122,0.258,0.23,0.407,0.314c3.235,1.803,6.011,4.238,8.944,6.459c3.21,2.43,6.558,4.665,9.875,6.942
	c0.277,0.189,0.631,0.294,0.727,0.814c-0.566,0.318-1.223,0.44-1.88,0.577c-4.167,0.864-8.351,1.599-12.589,2.021
	c-1.256,0.125-2.503,0.366-3.707,0.789c-5.064,1.778-10.346,2.651-15.575,3.742c-5.176,1.082-10.378,2.032-15.606,2.824
	c-5.531,0.836-10.814,2.701-16.271,3.815c-3.275,0.668-6.422,1.829-9.701,2.428c-2.877,0.525-5.725,1.174-8.747,1.762
	c0.073-1.428-0.947-2.209-1.814-3.097c-1.98-2.029-4.335-3.597-6.58-5.289c-2.254-1.698-4.495-3.404-6.538-5.349
	c-1.744-1.662-3.874-2.655-6.005-3.66c-0.206-0.097-0.441-0.153-0.636,0.06c-0.104,0.335,0.092,0.556,0.323,0.727
	c3.581,2.626,6.502,6.017,10.064,8.666c2.861,2.127,5.758,4.21,8.375,6.645c0.389,0.362,1.183,0.576,0.937,1.273
	c-0.178,0.507-0.863,0.543-1.363,0.576c-4.097,0.266-7.974,1.719-12.033,2.208c-1.354,0.163-2.431-0.075-3.487-0.977
	c-3.453-2.947-6.878-5.937-10.485-8.687c-2.923-2.228-5.957-4.305-8.653-6.816c-0.403-0.376-0.991-0.602-1.103-1.247
	c0.333-0.396,0.802-0.467,1.242-0.533c5.403-0.808,10.732-2.013,16.104-2.988c5.083-0.923,10.124-2.102,15.22-2.943
	c3.159-0.521,6.215-1.747,9.498-1.486c0.278,0.021,0.573-0.052,0.851-0.122c5.41-1.358,11.019-1.726,16.384-3.302
	c0.44-0.128,0.911-0.267,1.356-0.235c3.413,0.246,6.567-0.901,9.8-1.698c3.347-0.825,6.727-1.54,10.115-2.179
	c3.392-0.64,6.754-1.406,10.117-2.17c2.424-0.55,4.902-0.593,7.348-0.935c3.356-0.471,6.74-0.755,9.999-1.775
	c0.662-0.208,1.325-0.407,1.868-0.857c0.281-0.233,0.416-0.559,0.285-0.926c-0.156-0.435-0.508-0.338-0.863-0.312
	c-6.471,0.48-12.871,1.55-19.294,2.411c-2.324,0.312-4.586,1.069-6.891,1.558c-4.273,0.905-8.556,1.761-12.835,2.639
	c-0.225,0.046-0.453,0.09-0.669,0.168c-3.22,1.15-6.552,1.641-9.955,1.878c-1.532,0.107-3.031,0.644-4.55,0.963
	c-5.347,1.125-10.707,2.137-16.114,2.962c-5.28,0.804-10.48,2.12-15.729,3.149c-4.23,0.829-8.465,1.633-12.734,2.254
	c-0.85,0.124-1.682,0.381-2.515,0.602c-2.67,0.706-5.455,0.827-8.11,1.645c-1.297,0.399-1.702,0.031-1.728-1.311
	c-0.03-1.493-0.063-2.989,0.249-4.469c0.527-2.496,0.468-5.033,0.49-7.563c0.015-1.86,0.226-2.137,1.942-2.776
	c1.994-0.743,4.09-1.128,6.104-1.827c3.423-1.188,6.816-2.442,10.168-3.813c1.434-0.585,2.827-1.211,4.44-1.275
	c1.19-0.047,2.372-0.417,3.549-0.682c0.62-0.14,1.234-0.273,1.873-0.258c1.152,0.027,2.299-0.212,3.431-0.225
	c3.893-0.043,7.605-1.044,11.377-1.794c3.881-0.771,7.798-1.367,11.734-1.841c2.445-0.293,4.912-0.565,7.29-1.291
	c0.383-0.117,0.782-0.241,1.179-0.256c3.981-0.159,7.818-1.273,11.748-1.77c1.822-0.229,3.621-0.737,5.446-0.84
	c4.942-0.278,9.78-1.406,14.72-1.677c1.316-0.072,2.624-0.328,3.936-0.49c1.604-0.198,1.682-0.065,1.545,1.473
	c-0.298,3.378-0.528,6.762-0.784,10.144c-0.017,0.229-0.032,0.461-0.022,0.69c0.028,0.629-0.031,1.343,0.791,1.521
	c0.6,0.129,1.234-0.608,1.319-1.517c0.055-0.571,0.054-1.151,0.036-1.725c-0.1-3.215,0.303-6.423,0.112-9.642
	c-0.072-1.204,0.169-1.464,1.388-1.44c2.773,0.053,5.504-0.35,8.249-0.607c1.327-0.125,1.713,0.137,1.752,1.485
	c0.056,1.949-0.15,3.906-0.117,5.857c0.043,2.473-0.63,4.912-0.298,7.396c0.035,0.26-0.132,0.545-0.202,0.82
	c-0.307,1.208,0.091,2.129,1.183,2.706C188.075,168.739,189.619,169.926,191.329,170.66z M193.962,144.835
	c-3.077,0.395-6.152,0.831-9.24,1.094c-4.69,0.4-9.393,0.643-14.088,1c-6.762,0.514-13.467,1.523-20.179,2.45
	c-6.146,0.849-12.253,1.948-18.329,3.205c-3.218,0.666-6.493,0.804-9.74,1.208c-3.131,0.389-6.263,0.727-9.375,1.283
	c-4.409,0.788-8.875,1.189-13.336,1.578c-0.459,0.021-0.923,0.009-1.377,0.068c-0.846,0.109-1.14-0.372-1.222-1.087
	c-0.09-0.782,0.254-1.14,1.059-1.217c7.206-0.701,14.324-2.01,21.483-3.033c4.203-0.601,8.444-0.988,12.658-1.542
	c3.412-0.448,6.823-0.877,10.219-1.495c4.231-0.768,8.472-1.588,12.775-1.941c3.656-0.301,7.312-0.62,10.966-0.972
	c3.938-0.379,7.874-0.795,11.815-1.153c2.101-0.19,4.248-0.258,6.293-0.927c1.1-0.36,2.251-0.392,3.408-0.431
	c1.945-0.066,3.915,0.155,5.82-0.476c0.664-0.22,1.125,0.039,1.232,0.78C194.93,144.092,194.635,144.749,193.962,144.835z
	 M139.515,144.758c-0.007-1.729,0.523-2.344,2.225-2.554c1.984-0.246,3.97-0.482,5.85-0.709c0.721,0.058,1.411-0.064,1.526,0.858
	c0.145,1.166-0.193,2.038-1.013,2.247c-0.94,0.24-1.897,0.466-2.859,0.558c-1.484,0.144-2.942,0.375-4.393,0.727
	C139.835,146.131,139.519,145.817,139.515,144.758z M151.546,141.855c0.129-0.603,0.418-0.907,1.021-0.951
	c2.631-0.188,5.273-0.287,7.89-0.6c3.297-0.396,6.654-0.204,9.909-1.032c0.493-0.126,1.024-0.138,1.539-0.149
	c4.48-0.1,8.92-0.557,13.353-1.211c2.264-0.334,4.588,0.044,6.871-0.283c0.561-0.08,0.868,0.215,1.009,0.714
	c0.149,0.531,0.146,1.031-0.42,1.345c-0.461,0.256-0.965,0.426-1.483,0.391c-4.474-0.306-8.778,0.898-13.149,1.485
	c-2.275,0.306-4.571,0.409-6.852,0.587c-3.033,0.238-6.041,0.711-9.075,0.894c-2.979,0.18-5.942,0.503-8.675,0.827
	C151.528,143.912,151.192,143.485,151.546,141.855z M200.677,139.021c-1.208,0.052-2.412,0.086-3.438,0.302
	c-0.787,0.054-1.313-0.025-1.45-0.792c-0.149-0.848,0.074-1.288,0.941-1.541c1.509-0.44,3.089-0.225,4.624-0.44
	c0.245-0.034,0.443,0.091,0.55,0.324C202.296,137.726,201.614,138.981,200.677,139.021z M197.991,133.347
	c-2.912,0.629-5.928,0.751-8.876,1.231c-2.851,0.462-5.752,0.163-8.589,0.71c-0.507,0.098-1.042,0.085-1.533,0.229
	c-3.071,0.907-6.246,0.906-9.395,1.137c-0.629,0.046-1.25,0.186-1.879,0.242c-4.408,0.39-8.817,0.75-13.222,1.161
	c-2.289,0.214-4.57,0.516-6.857,0.769c-2.855,0.316-5.711,0.621-8.568,0.934c-2.341,0.257-4.683,0.51-7.022,0.78
	c-3.54,0.407-7.084,0.792-10.616,1.254c-2.45,0.32-4.876,0.837-7.329,1.12c-4.115,0.475-8.201,1.141-12.292,1.763
	c-4.883,0.743-9.772,1.472-14.614,2.434c-3.712,0.737-7.402,1.583-11.142,2.189c-0.972,0.158-1.891,0.095-3.135-0.118
	c0.976-0.961,1.942-1.148,2.861-1.289c2.223-0.341,4.398-0.888,6.592-1.353c4.722-1,9.438-2.035,14.166-3.009
	c1.518-0.313,3.094-0.36,4.592-0.735c3.8-0.954,7.704-1.241,11.536-1.948c2.996-0.552,5.993-1.137,9.01-1.441
	c3.999-0.404,7.982-0.94,11.97-1.404c5.247-0.611,10.512-1.144,15.722-2.062c2.148-0.378,4.311-0.721,6.513-0.581
	c0.456,0.029,0.924-0.012,1.376-0.084c6.981-1.125,14.008-1.917,21.039-2.589c5.543-0.53,11.099-1.018,16.674-1.287
	c4.024-0.194,8.029,0.249,12.035-0.072c0.924-0.074,1.83,0.118,2.743,0.313C205.792,131.967,201.881,132.507,197.991,133.347z
	 M212.74,127.291c-2.333,0.39-4.698,0.322-7.051,0.43c-2.693,0.124-5.434,0.116-8.067,0.5c-5.009,0.73-10.054,0.902-15.071,1.401
	c-5.549,0.553-11.082,1.225-16.626,1.796c-4.682,0.481-9.311,1.347-14.044,1.518c-4.869,0.177-9.75,0.564-14.592,1.101
	c-3.588,0.397-7.167,0.993-10.771,1.305c-5.045,0.436-10.018,1.426-15.046,1.927c-5.741,0.571-11.359,1.658-16.925,3.107
	c-3.177,0.828-6.421,1.296-9.661,1.787c-3.585,0.543-7.033,1.733-10.63,2.214c-2.849,0.38-5.69,0.808-8.572,0.251
	c-1.09-0.21-2.142-0.571-3.061-1.123c-4.188-2.513-8.372-5.038-12.467-7.696c-3.85-2.498-7.745-4.908-11.734-7.177
	c-1.724-0.981-3.33-2.17-4.946-3.235c0.076-0.339,0.243-0.402,0.415-0.414c4.817-0.295,9.57-1.175,14.399-1.444
	c3.605-0.201,7.219-0.443,10.819-0.881c5.184-0.63,10.4-0.998,15.602-1.484c4.518-0.423,9.035-0.856,13.552-1.283
	c0.343-0.033,0.692-0.104,1.032-0.08c2.664,0.193,5.247-0.305,7.852-0.784c2.884-0.53,5.806-0.633,8.756-0.461
	c2.285,0.132,4.61,0.05,6.885-0.219c2.872-0.339,5.745-0.177,8.613-0.344c3.725-0.217,7.458-0.329,11.163-0.87
	c1.248-0.182,2.556-0.023,3.777-0.29c3.655-0.797,7.383-1.014,11.065-1.569c2.581-0.39,5.167-0.235,7.75-0.351
	c5.508-0.244,11.024-0.354,16.522-0.736c2.918-0.204,5.868-0.075,8.76-0.657c0.337-0.068,0.708-0.042,1.015-0.174
	c1.408-0.606,2.702-0.322,4.166,0.04c5.583,1.379,10.429,4.471,15.726,6.502c3.166,1.213,6.247,2.608,9.546,3.478
	c2.146,0.565,4.199,1.468,6.393,2.581C215.75,126.848,214.231,127.041,212.74,127.291z"/>
<path fill="#1D71B8" d="M89.939,165.241c-0.055-0.288-0.171-0.628-0.488-0.627c-0.451,0.001-0.478,0.42-0.504,0.762
	c-0.104,1.315-0.176,2.633-0.297,3.947c-0.282,3.042,0.547,6.061,0.163,9.109c-0.085,0.683,0.646,1.303,1.339,1.308
	c0.899,0.006,0.95-0.653,0.975-1.313c0.006-0.172,0-0.344,0-0.548c-0.384-3.392-0.728-6.816-0.773-10.267
	C90.346,166.819,90.092,166.03,89.939,165.241z"/>
<path fill="#1D71B8" d="M145.995,61.335c-1.227-0.054-2.126,0.582-2.12,1.497c0.007,1.042,1.326,2.319,2.398,2.32
	c0.869,0,1.367-0.579,1.378-1.603C147.666,62.282,146.99,61.379,145.995,61.335z"/>
<path fill="#1D71B8" d="M136.785,60.719c-1.116-0.062-2.016,0.98-1.983,2.296c0.022,0.893,0.748,1.438,1.923,1.443
	c1.018,0.005,1.701-0.657,1.742-1.688C138.503,61.834,137.628,60.765,136.785,60.719z"/>
</svg>
