<?xml version="1.0" encoding="utf-8"?>
<!-- Generator: Adobe Illustrator 16.0.3, SVG Export Plug-In . SVG Version: 6.00 Build 0)  -->
<!DOCTYPE svg PUBLIC "-//W3C//DTD SVG 1.1//EN" "http://www.w3.org/Graphics/SVG/1.1/DTD/svg11.dtd">
<svg version="1.1" id="Capa_1" xmlns="http://www.w3.org/2000/svg" xmlns:xlink="http://www.w3.org/1999/xlink" x="0px" y="0px"
	 width="231.092px" height="237.092px" viewBox="0 0 231.092 237.092" enable-background="new 0 0 231.092 237.092"
	 xml:space="preserve">
<path fill="#B2DBF2" d="M179.883,107.021c-1.84,1.026-3.583,2.203-5.31,3.422c-1.809,1.277-3.325,2.85-4.467,4.646
	c-2.215,3.485-2.846,7.504-3.124,11.558c-0.263,3.852,0.179,7.657,0.939,11.431c0.538,2.674,1.141,5.314,2.247,7.839
	c1.239,2.828,3.561,4.146,6.326,4.898c1.857,0.505,3.803,0.417,5.5,0.669c1.369,0.002,2.51-0.161,3.63-0.513
	c1.152-0.363,2.311-0.707,3.478-1.016c6.546-1.733,12.179-5.046,16.926-9.85c1.618-1.637,2.663-3.64,3.246-5.886
	c0.632-2.439,0.563-5.008,1.474-7.401c0.334-0.879-0.116-1.625-0.837-2.255c-1.525-1.333-3.275-2.357-4.945-3.457
	c-2.748-1.808-5.337-3.803-7.904-5.841c-0.758-0.601-1.366-1.333-1.989-2.066c-2.212-2.598-3.816-5.572-5.365-8.578
	c-0.772-1.5-0.744-1.496-2.399-0.981C184.69,104.455,182.263,105.692,179.883,107.021z"/>
<path fill="#EE7118" d="M167.016,112.507c0.503,0.313,0.985,0.079,1.375-0.283c0.517-0.481,1.042-0.962,1.497-1.5
	c1.806-2.137,3.917-3.954,6.295-5.372c2.415-1.438,4.846-2.887,7.527-3.849c1.274-0.457,2.497-1.099,3.586-1.936
	c0.379-0.292,0.886-0.479,1.081-1.214c-1.199-0.062-2.309-0.256-3.445,0.09c-0.923,0.281-1.755,0.783-2.653,1.099
	c-3.499,1.228-6.721,2.918-9.638,5.235c-1.016,0.806-2.029,1.641-3.178,2.3c-1.256,0.72-2.215,1.75-2.338,3.327
	c-0.023,0.296-0.163,0.581-0.249,0.873C166.75,111.709,166.514,112.192,167.016,112.507z"/>
<path fill="#1D71B8" d="M187.302,76.603c-0.616-0.149-1.188-0.525-1.914-0.392c-0.037,0.474,0.151,0.65,0.339,0.81
	c1.345,1.14,3.019,1.558,4.637,2.09c0.26,0.085,0.504-0.028,0.594-0.316c0.109-0.347-0.052-0.625-0.363-0.722
	C189.44,77.707,188.49,76.892,187.302,76.603z"/>
<path fill="#B2DBF2" d="M203.443,115.98c-1.882-1.441-3.851-2.785-5.628-4.346c-2.566-2.252-4.135-5.187-5.145-8.425
	c-0.132-0.426-0.196-1.076-0.76-0.898c-0.627,0.199-0.114,0.759-0.07,1.161c0.011,0.097,0.052,0.196,0.096,0.286
	c1.25,2.592,2.513,5.176,4.31,7.453c1.644,2.083,3.941,3.41,5.912,5.112c0.296,0.256,0.728,0.347,1.076,0.548
	c0.436,0.25,0.899,0.482,1.268,0.814c1.569,1.411,3.292,2.651,4.645,4.303c0.533,0.653,1.212,1.186,1.854,1.803
	c0.349-0.337,0.376-0.738,0.434-1.128c0.75-5.095,1.219-10.218,1.488-15.359c0.135-2.58,0.03-5.05-1.364-7.452
	c-1.106-1.906-2.502-2.988-4.92-2.465c-2.86,0.618-5.621,1.597-8.434,2.386c-1.017,0.285-2.009,0.674-2.988,1.077
	c-0.941,0.387-1.085,0.714-0.771,1.641c1.236,3.646,3.082,6.927,6.109,9.385c1.272,1.032,2.227,2.333,3.395,3.445
	c0.206,0.196,0.489,0.461,0.168,0.762C203.9,116.289,203.652,116.141,203.443,115.98z"/>
<path fill="#EE7118" d="M118.045,49.667c-3.74,0.486-7.566,0.201-11.243,1.264c-0.933,0.269-1.902,0.218-2.859,0.261
	c-0.705,0.034-1.404,0.057-2.107,0.179c-2.931,0.504-5.867,0.979-8.806,1.435c-1.194,0.185-2.402,0.284-3.601,0.443
	c-0.291,0.039-0.654,0.103-0.685,0.473c-0.03,0.36,0.331,0.458,0.581,0.62c1.026,0.664,2.214,0.566,3.348,0.77
	c2.744,0.491,5.437,0.187,8.122-0.318c4.961-0.933,9.776-2.435,14.617-3.835c1.106-0.32,2.22-0.614,3.48-0.962
	C118.543,49.594,118.278,49.637,118.045,49.667z"/>
<path fill="#EE7118" d="M189.963,82.101c0.251-0.056,0.486-0.187,0.574-0.444c0.113-0.328-0.153-0.454-0.383-0.544
	c-0.328-0.127-0.678-0.196-1.008-0.32c-1.644-0.613-3.411-0.934-4.771-2.196c-1.064-0.987-1.395-2.079-0.844-3.229
	c0.481-1.006,1.614-1.473,3.012-1.033c1.875,0.591,3.727,1.27,5.548,2.011c1.381,0.562,1.555,1.118,0.965,2.502
	c-0.287,0.671-0.653,1.31-1.097,2.188c2.867-1.143,5.34-0.532,7.79,0.591c1.087,0.498,2.161,1.186,3.437,1.023
	c1.1-0.142,2.204-0.124,3.632-0.196c-0.472-0.428-0.708-0.687-0.986-0.888c-2.977-2.153-6.343-3.569-9.764-4.761
	c-3.238-1.129-6.495-2.214-9.738-3.338c-3.576-1.24-7.129-2.549-10.702-3.789c-2.912-1.012-5.78-2.112-8.606-3.323
	c-2.094-0.896-4.233-1.674-6.401-2.328c-2.191-0.663-4.265-1.551-6.308-2.546c-2.494-1.216-4.93-2.572-7.492-3.621
	c-2.343-0.958-4.631-2.012-6.847-3.215c-1.95-1.06-3.869-2.173-5.91-3.06c-1.177-0.512-2.329-1.073-3.668-1.203
	c0.079,0.364,0.307,0.5,0.5,0.649c1.881,1.451,3.522,3.153,5.217,4.809c1.438,1.403,2.63,3.045,4.364,4.175
	c2.181,1.421,4.552,2.415,6.95,3.326c3.013,1.146,5.883,2.604,8.85,3.846c1.39,0.583,2.74,1.281,4.153,1.822
	c0.941,0.36,1.903,0.671,2.83,1.066c3.386,1.445,6.688,3.089,10.181,4.285c0.57,0.195,1.102,0.5,1.659,0.738
	c2.926,1.25,5.601,3.009,8.56,4.196c1.773,0.71,3.572,1.38,5.178,2.456C189.164,81.968,189.529,82.195,189.963,82.101z"/>
<path fill="#B2DBF2" d="M143.426,132.795c-0.428-1.774-1.602-3.11-3.532-3.3c-1.749-0.173-3.52-0.286-5.281-0.18
	c-3.026,0.296-5.992,0.79-8.934,1.593c-3.272,0.892-6.184,2.785-9.573,3.298c-0.145,0.022-0.289,0.098-0.419,0.171
	c-2.447,1.41-5.123,2.381-7.466,4.006c-2.3,1.595-5.177,2.306-7.051,4.571c-0.06,0.073-0.169,0.108-0.26,0.152
	c-0.752,0.359-1.296,0.947-1.795,1.594c-0.556,0.719-1.129,1.426-1.691,2.14c-1.971,2.502-3.032,5.346-2.867,8.53
	c0.104,1.994,0.059,3.99,0.52,5.987c0.748,3.239,0.966,6.577,1.778,9.823c0.667,2.666,1.587,5.204,2.86,7.622
	c0.591,1.122,1.35,2.128,2.418,2.865c4.242,2.924,8.929,3.878,13.829,2.413c3.167-0.946,6.427-1.643,9.464-3.1
	c3.012-1.445,6.053-2.764,8.578-5.029c2.096-1.881,4.402-3.53,5.654-6.212c0.631-1.354,1.092-2.68,1.135-4.184
	c0.067-2.333-0.308-4.63-0.456-6.945c-0.151-2.379,0.256-4.639,1.015-6.839c0.674-1.957,1.395-3.896,1.952-5.889
	c0.639-2.281,1.433-4.55,1.106-6.976C144.135,136.861,143.909,134.796,143.426,132.795z"/>
<path fill="#EE7118" d="M215.724,124.541c0.005-0.005,0.008-0.011,0.013-0.016c0-0.021,0-0.042,0.001-0.063
	c-0.005,0.018-0.008,0.035-0.013,0.053C215.725,124.524,215.723,124.533,215.724,124.541z"/>
<path fill="#EE7118" d="M216.691,90.444c-0.397-1.555-1.26-2.576-2.404-3.521c-0.557-0.459-1.111-0.47-1.671-0.101
	c-0.842,0.557-1.68,1.124-2.477,1.742c-2.677,2.079-5.349,4.137-8.629,5.247c-1.096,0.372-2.151,0.85-3.294,1.102
	c-0.803,0.178-1.577,0.482-2.65,0.819c0.996,0.322,1.694,0.222,2.378,0.176c2.084-0.138,4.096-0.645,6.008-1.454
	c2.471-1.048,4.968-1.14,7.562-0.613c1.273,0.259,2.242,0.797,3.214,1.718c1.104,1.045,1.603,2.18,1.64,3.579
	c0.048,1.817,0.131,3.651-0.053,5.452c-0.303,2.98-0.242,5.94-0.019,8.915c0.105,1.408,0.179,2.834-0.083,4.234
	c-0.416,2.226-0.461,4.472-0.477,6.723c0.779-2.865,0.932-5.836,1.477-8.741c0.42-2.241,0.234-4.538,0.604-6.781
	c0.354-2.158,0.296-4.326,0.31-6.497c0.007-1.123-0.267-2.203-0.33-3.313C217.63,96.212,217.426,93.31,216.691,90.444z"/>
<path fill="#EE7118" d="M162.566,119.911c0.064-0.5,0.046-1.025,0.196-1.498c0.32-1.015-0.098-1.884-0.419-2.782
	c-0.214-0.6-0.572-0.604-1.054-0.287c-0.513,0.338-0.961,0.739-1.338,1.219c-0.249,0.316-0.465,0.646-0.804,0.893
	c-1.756,1.285-3.669,2.284-5.651,3.165c-0.423,0.188-0.874,0.226-1.324,0.297c-3.049,0.484-6.113,0.625-9.2,0.652
	c-1.504,0.013-3.025-0.191-4.523,0.083c-3.174,0.58-6.338,1.219-9.518,1.765c-2.688,0.462-5.398,0.908-7.991,1.703
	c-3.563,1.093-7.098,2.311-10.519,3.842c-2.404,1.077-4.618,2.498-6.986,3.62c-3.295,1.561-6.336,3.554-9.487,5.358
	c-2.676,1.533-5.32,3.115-8.333,3.906c-1.322,0.347-2.63,0.736-3.889,1.253c-1.489,0.613-2.935,0.505-4.438,0.084
	c-4.464-1.25-8.532-3.406-12.535-5.643c-2.905-1.625-5.803-3.27-8.699-4.916c-2.106-1.197-4.231-2.348-6.179-3.813
	c-1.732-1.304-3.531-2.533-5.373-3.676c-5.256-3.265-9.99-7.198-14.58-11.311c-1.274-1.141-2.563-2.354-3.502-3.763
	c-1.496-2.244-3.324-4.186-5.047-6.228c-0.606-0.718-1.354-1.176-2.642-1.378c0.395,0.97,0.69,1.686,1.22,2.205
	c1.773,1.737,3.184,3.795,4.943,5.536c3.552,3.514,7.153,6.977,10.712,10.482c1.401,1.379,2.87,2.719,4.083,4.254
	c1.244,1.574,2.223,3.359,3.297,5.064c0.593,0.94,1.072,1.996,1.957,2.676c0.931,0.714,1.72,1.555,2.552,2.363
	c0.325,0.316,0.662,0.632,1.039,0.877c4.658,3.03,9.64,5.488,14.508,8.146c2.034,1.11,4.079,2.188,5.975,3.522
	c1.41,0.992,2.344,2.333,2.85,3.991c0.581,1.905,0.68,3.874,0.778,5.834c0.083,1.656,0.417,3.253,0.8,4.856
	c-0.135-2.374-0.186-4.739,0.018-7.104c0.175-2.033,0.471-4.022,1.86-5.653c0.589-0.691,1.202-1.364,1.773-2.07
	c1.19-1.468,2.769-2.142,4.604-2.317c1.227-0.117,2.27,0.274,3.196,1.083c1.396,1.221,2.283,2.786,3.114,4.406
	c1.095,2.133,1.537,4.479,2.231,6.74c0.489,1.59,0.935,3.2,1.128,4.866c0.314,2.706,0.664,5.406,0.957,8.113
	c0.213,1.964,0.11,3.935-0.034,5.9c-0.104,1.429-0.855,2.289-2.195,2.767c-1.457,0.52-2.691-0.04-3.885-0.699
	c-2.239-1.236-4.155-2.853-5.535-5.049c-0.749-1.192-1.74-2.055-3.282-2.198c0.3,0.429,0.568,0.835,0.858,1.224
	c1.3,1.74,2.644,3.442,4.315,4.85c1.348,1.136,2.646,2.343,4.077,3.364c1.678,1.198,3.169,2.639,5.004,3.643
	c1.292,0.707,2.628,1.304,3.979,1.85c4.371,1.763,8.762,3.21,13.658,2.546c4.069-0.551,8.068-1.273,11.956-2.58
	c1.865-0.628,3.712-1.307,5.56-1.985c2.324-0.854,4.663-1.739,6.717-3.11c2.387-1.593,4.606-3.437,6.888-5.185
	c0.312-0.24,0.794-0.461,0.778-0.876c-0.03-0.779,0.431-1.021,1.01-1.303c0.607-0.296,0.928-0.91,1.271-1.469
	c0.422-0.688,0.867-1.367,1.235-2.085c1.643-3.192,3.248-6.408,3.779-10.012c0.332-2.244,0.31-4.525,0.458-6.788
	c0.179-2.717,0.084-5.455,0.059-8.182c-0.037-3.913,0.334-7.769,1.5-11.521c0.752-2.419,1.87-4.622,4.236-5.843
	c1.621-0.838,3.116-1.873,4.702-2.761C161.353,123.75,162.292,122.037,162.566,119.911z M146.774,155.689
	c-0.44,1.868-0.841,3.745-1.274,5.615c-0.124,0.533-0.243,1.362-0.833,1.273c-0.775-0.117-0.26-0.908-0.255-1.389
	c0.025-2.482,0.477-4.92,0.798-7.374c0.206-1.577,0.249-3.177,0.072-5.005c-1.074,1.473-1.424,2.997-1.913,4.449
	c-0.839,2.497-0.724,5.069-0.501,7.646c0.147,1.708,0.442,3.425,0.361,5.124c-0.16,3.336-1.714,6.08-4.173,8.293
	c-1.5,1.351-3.09,2.6-4.616,3.921c-2.32,2.011-4.966,3.414-7.825,4.512c-1.69,0.649-3.25,1.71-5.054,1.993
	c-1.618,0.253-3.127,0.787-4.663,1.279c-2.031,0.651-4.096,1.153-6.246,0.94c-3.04-0.301-5.888-1.251-8.654-2.547
	c-3.17-1.486-4.554-4.349-5.698-7.312c-1.493-3.865-2.383-7.904-2.869-12.033c-0.224-1.901-0.635-3.779-0.949-5.67
	c-0.074-0.447-0.183-0.911-0.132-1.351c0.296-2.554-0.132-5.171,0.495-7.68c0.644-2.575,1.339-5.147,3.271-7.189
	c1.277-1.35,2.344-2.869,3.919-3.959c4.663-3.23,9.45-6.172,14.831-8.12c2.907-1.051,5.896-1.768,8.835-2.677
	c1.977-0.611,3.982-1.13,5.968-1.71c4.294-1.254,8.605-1.569,12.995-0.449c1.96,0.5,3.311,1.544,4.125,3.414
	c0.928,2.129,1.057,4.345,1.249,6.621c0.196,2.322-0.608,4.627,0.068,6.92C147.751,147.388,147.743,151.588,146.774,155.689z"/>
<path fill="#EE7118" d="M213.923,130.27c-1.087,3.721-2.791,7.153-5.223,10.16c-2.037,2.52-4.531,4.587-7.189,6.453
	c-2.363,1.659-4.803,3.181-7.555,4.094c-2.152,0.714-4.35,1.293-6.524,1.94c-4.319,1.287-8.592,1.513-12.892-0.206
	c-3.311-1.324-6.061-3.236-7.549-6.557c-1.279-2.854-1.998-5.915-2.98-8.878c-0.046-0.138-0.054-0.308-0.022-0.449
	c0.461-2.025-0.132-4.022-0.175-6.033c-0.029-1.4-0.334-2.8-0.58-4.191c-0.135-0.766-0.509-0.995-1.177-0.646
	c-0.933,0.489-1.792,1.122-2.67,1.711c-0.108,0.072-0.226,0.28-0.196,0.382c0.209,0.713-0.075,1.515,0.466,2.174
	c0.989,1.204,1.421,2.655,1.691,4.159c0.374,2.079,0.752,4.156,1.097,6.24c0.575,3.478,1.984,6.566,4.41,9.125
	c2.952,3.114,6.612,4.863,10.868,5.444c2.027,0.277,4.026-0.027,6.037-0.073c1.165-0.026,2.315-0.275,3.413-0.642
	c4.356-1.452,8.592-3.176,12.665-5.332c4.061-2.151,7.384-5.105,10.077-8.757c2.896-3.923,4.598-8.388,5.442-13.179
	c0.156-0.882,0.433-1.754,0.366-2.669c-0.308,0.343-0.457,0.757-0.572,1.197C214.753,127.252,214.361,128.768,213.923,130.27z"/>
<path fill="#1D71B8" d="M220.017,97.228c0.079-1.367-0.117-2.721-0.452-4.052c-0.159-0.638-0.328-1.314-0.177-1.949
	c0.398-1.672-0.377-3.039-1.011-4.455c-0.551-1.23-1.584-2.048-2.455-3.018c-1.34-1.492-2.869-2.748-4.635-3.592
	c-3.091-1.478-6.263-2.797-9.438-4.089c-3.459-1.408-6.992-2.635-10.437-4.076c-3.592-1.501-7.329-2.571-10.999-3.833
	c-2.625-0.903-5.303-1.688-7.849-2.776c-2.79-1.192-5.699-2.029-8.504-3.172c-3.867-1.577-8.029-2.347-11.75-4.374
	c-2.697-1.469-5.503-2.743-8.288-4.045c-2.516-1.177-4.816-2.761-7.394-3.817c-2.102-0.861-4.179-1.784-6.281-2.645
	c-1.347-0.551-2.655-1.241-4.163-1.292c-2.063-0.071-4.132-0.08-6.187-0.163c-4.465-0.18-8.723,0.824-12.999,1.809
	c-2.553,0.588-5.02,1.54-7.658,1.77c-1.856,0.162-3.698,0.431-5.534,0.764c-1.188,0.217-2.368,0.604-3.587,0.533
	c-1.566-0.091-2.959,0.554-4.416,0.923c-0.55,0.139-0.964,0.553-1.216,1.077c-0.208,0.434-0.272,0.912,0.094,1.275
	c0.569,0.565,1.053,1.264,1.824,1.572c1.813,0.727,3.524,1.697,5.557,1.851c3.338,0.252,6.672,0.389,9.948-0.361
	c2.846-0.653,5.643-1.523,8.465-2.282c3.167-0.85,6.347-1.647,9.496-2.566c1.301-0.379,2.648-0.628,4.013-0.766
	c1.695-0.171,3.099,0.392,4.245,1.577c1.475,1.522,2.951,3.051,4.313,4.673c3.569,4.255,7.986,7.21,13.251,8.941
	c2.446,0.805,4.925,1.546,7.288,2.555c2.734,1.169,5.399,2.495,8.192,3.543c2.454,0.92,4.809,2.108,7.267,3.017
	c4.653,1.718,9.106,3.86,13.49,6.152c1.512,0.791,3.005,1.693,3.855,3.303c0.474,0.899,1.084,1.709,1.768,2.454
	c1.1,1.199,1.464,2.612,1.354,4.196c-0.074,1.066-0.197,1.261-1.259,1.606c-1.057,0.343-2.174,0.542-3.177,0.998
	c-4.133,1.879-8.313,3.647-12.211,6.034c-3.292,2.016-6.282,4.366-9.153,6.92c-2.332,2.074-4.549,4.307-7.34,5.809
	c-1.022,0.55-2.068,1.074-3.018,1.734c-2.007,1.396-4.215,2.371-6.458,3.289c-0.567,0.233-1.145,0.344-1.752,0.424
	c-2.398,0.318-4.803,0.62-7.178,1.067c-4.908,0.925-9.792,1.975-14.697,2.912c-4.098,0.782-7.979,2.255-11.784,3.854
	c-3.386,1.421-6.579,3.3-9.859,4.973c-1.348,0.687-2.773,1.251-4.038,2.066c-3.229,2.082-6.491,4.111-10.041,5.584
	c-1.944,0.806-3.954,1.499-6.099,1.721c-2.911,0.301-5.495-0.837-8.005-1.926c-2.064-0.894-4.142-1.865-6.069-3.076
	c-5.167-3.243-10.9-5.48-15.864-9.108c-3.909-2.859-8.17-5.22-11.979-8.233c-1.414-1.119-2.961-2.121-3.545-4
	c-0.129-0.417-0.48-0.765-0.728-1.146c-1.753-2.687-4.034-4.905-6.292-7.152c-1.493-1.486-3.246-2.76-4.115-4.79
	c-0.148-0.344-0.512-0.461-0.808-0.654c-1.221-0.792-2.59-1.067-4.001-1.287c-0.892-0.139-1.693-0.326-2.25,0.641
	c-0.431,0.746-1.061,1.527-0.837,2.361c0.295,1.098,0.58,2.279,1.413,3.15c2.371,2.482,4.442,5.238,6.952,7.591
	c0.92,0.863,1.887,1.677,2.784,2.563c2.187,2.159,4.304,4.391,6.523,6.516c2.644,2.53,4.998,5.261,6.671,8.546
	c0.501,0.985,1.044,1.99,1.909,2.713c2.463,2.06,4.633,4.406,7.511,6.048c5.045,2.878,10.263,5.423,15.317,8.277
	c2.512,1.418,4.329,3.262,4.694,6.271c0.122,1.005,0.23,2.005,0.276,3.015c0.066,1.462,0.261,2.905,0.531,4.349
	c0.354,1.893,0.979,3.708,1.424,5.57c0.217,0.908,0.508,1.746,1.026,2.492c1.579,2.275,3.18,4.531,4.889,6.714
	c3.08,3.931,7.209,6.576,11.251,9.336c2.3,1.57,4.863,2.668,7.274,4.042c1.591,0.906,3.401,1.49,5.201,1.489
	c3.317-0.001,6.628,0.238,9.965-0.397c3.469-0.661,6.952-1.176,10.352-2.192c3.643-1.089,7.195-2.374,10.46-4.333
	c1.423-0.854,2.919-1.622,4.183-2.716c2.326-2.016,4.65-4.033,6.913-6.12c2.068-1.907,3.496-4.32,4.626-6.841
	c0.733-1.634,1.33-3.363,1.794-5.13c0.708-2.693,1.521-5.375,1.302-8.18c-0.196-2.525-0.152-5.046-0.256-8.78
	c-0.198-2.544,0.191-6.25,0.916-9.931c0.39-1.977,1.344-3.701,2.45-5.332c0.885-1.304,2.153-1.253,3.113-0.009
	c0.474,0.614,0.742,1.329,0.908,2.068c0.275,1.231,0.507,2.472,0.728,3.715c0.387,2.183,0.651,4.388,1.254,6.531
	c0.782,2.78,2.226,5.193,4.146,7.315c1.929,2.132,4.388,3.565,6.917,4.832c4.6,2.302,9.441,2.315,14.339,1.182
	c2.661-0.616,5.179-1.653,7.725-2.643c4.17-1.621,8.052-3.726,11.727-6.242c1.078-0.739,2.204-1.446,2.943-2.581
	c0.472-0.726,1.096-1.314,1.695-1.93c0.735-0.756,1.662-1.487,2.017-2.415c0.531-1.388,1.272-2.629,1.99-3.897
	c2.235-3.949,2.978-8.365,3.784-12.717c0.716-3.862,1.451-7.738,1.739-11.67c0.21-2.867,0.42-5.734,0.572-8.605
	C220.523,101.849,219.883,99.562,220.017,97.228z M115.412,50.957c-4.84,1.4-9.655,2.903-14.617,3.835
	c-2.685,0.505-5.378,0.81-8.122,0.318c-1.134-0.204-2.322-0.106-3.348-0.77c-0.25-0.162-0.61-0.259-0.581-0.62
	c0.031-0.37,0.394-0.434,0.685-0.473c1.199-0.159,2.406-0.258,3.601-0.443c2.939-0.455,5.875-0.93,8.806-1.435
	c0.703-0.122,1.402-0.146,2.107-0.179c0.957-0.043,1.926,0.008,2.859-0.261c3.676-1.063,7.502-0.777,11.243-1.264
	c0.233-0.031,0.498-0.074,0.847,0.327C117.632,50.343,116.518,50.637,115.412,50.957z M188.836,81.749
	c-1.606-1.076-3.404-1.746-5.178-2.456c-2.959-1.187-5.634-2.946-8.56-4.196c-0.557-0.238-1.088-0.542-1.659-0.738
	c-3.492-1.195-6.794-2.84-10.181-4.285c-0.926-0.395-1.888-0.706-2.83-1.066c-1.414-0.542-2.763-1.24-4.153-1.822
	c-2.967-1.242-5.837-2.699-8.85-3.846c-2.397-0.912-4.769-1.905-6.95-3.326c-1.734-1.13-2.926-2.772-4.364-4.175
	c-1.695-1.656-3.336-3.358-5.217-4.809c-0.193-0.149-0.421-0.285-0.5-0.649c1.339,0.129,2.491,0.691,3.668,1.203
	c2.041,0.887,3.959,2,5.91,3.06c2.216,1.203,4.504,2.256,6.847,3.215c2.563,1.049,4.999,2.405,7.492,3.621
	c2.042,0.996,4.117,1.884,6.308,2.546c2.168,0.654,4.307,1.433,6.401,2.328c2.827,1.21,5.694,2.311,8.606,3.323
	c3.573,1.24,7.126,2.549,10.702,3.789c3.243,1.124,6.5,2.209,9.738,3.338c3.421,1.192,6.787,2.608,9.764,4.761
	c0.278,0.201,0.515,0.46,0.986,0.888c-1.428,0.073-2.532,0.054-3.632,0.196c-1.275,0.163-2.35-0.525-3.437-1.023
	c-2.45-1.123-4.923-1.733-7.79-0.591c0.444-0.877,0.81-1.516,1.097-2.188c0.59-1.384,0.417-1.94-0.965-2.502
	c-1.821-0.742-3.673-1.42-5.548-2.011c-1.398-0.44-2.531,0.026-3.012,1.033c-0.551,1.15-0.22,2.242,0.844,3.229
	c1.36,1.262,3.127,1.583,4.771,2.196c0.33,0.124,0.681,0.192,1.008,0.32c0.23,0.09,0.496,0.216,0.383,0.544
	c-0.088,0.258-0.323,0.389-0.574,0.444C189.529,82.195,189.164,81.968,188.836,81.749z M203.949,115.323
	c-1.168-1.112-2.122-2.413-3.395-3.445c-3.027-2.458-4.873-5.738-6.109-9.385c-0.313-0.927-0.169-1.254,0.771-1.641
	c0.979-0.403,1.971-0.792,2.988-1.077c2.813-0.79,5.573-1.768,8.434-2.386c2.418-0.523,3.813,0.559,4.92,2.465
	c1.395,2.402,1.499,4.872,1.364,7.452c-0.27,5.141-0.738,10.264-1.488,15.359c-0.058,0.39-0.085,0.791-0.434,1.128
	c-0.643-0.617-1.321-1.15-1.854-1.803c-1.353-1.652-3.075-2.892-4.645-4.303c-0.368-0.332-0.832-0.564-1.268-0.814
	c-0.349-0.201-0.78-0.292-1.076-0.548c-1.971-1.702-4.269-3.029-5.912-5.112c-1.796-2.277-3.06-4.861-4.31-7.453
	c-0.043-0.09-0.085-0.189-0.096-0.286c-0.044-0.402-0.557-0.962,0.07-1.161c0.564-0.178,0.627,0.473,0.76,0.898
	c1.01,3.238,2.579,6.172,5.145,8.425c1.777,1.561,3.746,2.904,5.628,4.346c0.209,0.16,0.457,0.308,0.674,0.104
	C204.438,115.784,204.155,115.519,203.949,115.323z M195.126,91.186c-1.014,0.343-1.32,0.153-1.73-0.856
	c-0.709-1.749-0.924-3.605-1.179-5.607c-0.031-0.522,0.306-0.956,0.833-1.351c1.254-0.938,2.625-0.686,3.921-0.316
	c2.911,0.834,5.715,1.943,8.111,3.879c0.156,0.126,0.321,0.244,0.465,0.384c0.351,0.34,0.259,0.639-0.143,0.833
	c-0.407,0.195-0.829,0.373-1.262,0.5C201.147,89.529,198.089,90.183,195.126,91.186z M190.959,78.794
	c-0.09,0.288-0.334,0.401-0.594,0.316c-1.619-0.532-3.292-0.95-4.637-2.09c-0.188-0.159-0.376-0.336-0.339-0.81
	c0.726-0.133,1.298,0.243,1.914,0.392c1.188,0.289,2.138,1.104,3.294,1.47C190.907,78.169,191.068,78.447,190.959,78.794z
	 M189.709,104.62c1.549,3.006,3.153,5.98,5.365,8.578c0.623,0.733,1.231,1.466,1.989,2.066c2.567,2.038,5.156,4.033,7.904,5.841
	c1.67,1.099,3.42,2.124,4.945,3.457c0.721,0.63,1.171,1.376,0.837,2.255c-0.91,2.394-0.842,4.962-1.474,7.401
	c-0.583,2.247-1.628,4.249-3.246,5.886c-4.747,4.804-10.38,8.117-16.926,9.85c-1.167,0.309-2.326,0.653-3.478,1.016
	c-1.12,0.353-2.261,0.516-3.63,0.513c-1.698-0.252-3.644-0.164-5.5-0.669c-2.766-0.751-5.087-2.07-6.326-4.898
	c-1.105-2.525-1.708-5.166-2.247-7.839c-0.76-3.774-1.202-7.579-0.939-11.431c0.278-4.054,0.908-8.072,3.124-11.558
	c1.142-1.796,2.658-3.369,4.467-4.646c1.726-1.219,3.469-2.396,5.31-3.422c2.38-1.329,4.807-2.566,7.427-3.382
	C188.965,103.125,188.937,103.12,189.709,104.62z M166.876,111.277c0.085-0.292,0.225-0.576,0.249-0.873
	c0.123-1.577,1.083-2.607,2.338-3.327c1.148-0.659,2.162-1.494,3.178-2.3c2.917-2.317,6.139-4.007,9.638-5.235
	c0.898-0.316,1.73-0.818,2.653-1.099c1.137-0.347,2.246-0.152,3.445-0.09c-0.195,0.735-0.702,0.922-1.081,1.214
	c-1.089,0.836-2.312,1.479-3.586,1.936c-2.681,0.962-5.112,2.411-7.527,3.849c-2.378,1.418-4.489,3.235-6.295,5.372
	c-0.455,0.538-0.98,1.019-1.497,1.5c-0.39,0.362-0.872,0.596-1.375,0.283C166.514,112.192,166.75,111.709,166.876,111.277z
	 M77.371,152.838c0.338-1.625,1.25-2.845,2.541-3.816c0.918-0.69,1.358-0.681,2.278,0.094c1.487,1.252,2.625,2.736,3.364,4.58
	c1.848,4.604,3.248,9.333,4.146,14.204c0.301,1.632,0.388,3.303,0.572,4.956c0.006,0.979-0.143,1.922-0.477,2.834
	c-0.244,0.666-0.726,0.996-1.42,0.769c-0.951-0.312-1.851-0.667-2.655-1.367c-2.542-2.211-4.055-5.089-5.633-7.976
	c-1.734-3.172-2.552-6.535-2.915-10.093C77.026,155.587,77.08,154.229,77.371,152.838z M154.737,127.583
	c-2.366,1.221-3.484,3.423-4.236,5.843c-1.166,3.752-1.536,7.608-1.5,11.521c0.025,2.728,0.12,5.465-0.059,8.182
	c-0.148,2.263-0.127,4.544-0.458,6.788c-0.532,3.604-2.137,6.82-3.779,10.012c-0.369,0.718-0.813,1.396-1.235,2.085
	c-0.343,0.559-0.664,1.173-1.271,1.469c-0.579,0.283-1.04,0.524-1.01,1.303c0.016,0.415-0.466,0.636-0.778,0.876
	c-2.282,1.748-4.501,3.592-6.888,5.185c-2.054,1.371-4.393,2.257-6.717,3.11c-1.847,0.679-3.695,1.357-5.56,1.985
	c-3.888,1.306-7.887,2.028-11.956,2.58c-4.896,0.664-9.287-0.783-13.658-2.546c-1.351-0.545-2.687-1.143-3.979-1.85
	c-1.835-1.004-3.326-2.445-5.004-3.643c-1.431-1.021-2.729-2.228-4.077-3.364c-1.671-1.408-3.016-3.11-4.315-4.85
	c-0.291-0.389-0.559-0.794-0.858-1.224c1.542,0.143,2.533,1.006,3.282,2.198c1.38,2.196,3.295,3.813,5.535,5.049
	c1.194,0.66,2.428,1.219,3.885,0.699c1.34-0.479,2.091-1.338,2.195-2.767c0.144-1.965,0.247-3.936,0.034-5.9
	c-0.293-2.707-0.643-5.407-0.957-8.113c-0.193-1.666-0.639-3.275-1.128-4.866c-0.695-2.261-1.137-4.607-2.231-6.74
	c-0.832-1.62-1.718-3.185-3.114-4.406c-0.926-0.81-1.969-1.201-3.196-1.083c-1.835,0.175-3.414,0.849-4.604,2.317
	c-0.572,0.706-1.184,1.379-1.773,2.07c-1.389,1.631-1.685,3.62-1.86,5.653c-0.204,2.365-0.153,4.73-0.018,7.104
	c-0.384-1.603-0.717-3.201-0.8-4.856c-0.098-1.96-0.198-3.929-0.778-5.834c-0.505-1.658-1.44-3-2.85-3.991
	c-1.896-1.334-3.941-2.412-5.975-3.522c-4.868-2.658-9.85-5.115-14.508-8.146c-0.377-0.245-0.714-0.561-1.039-0.877
	c-0.832-0.808-1.621-1.648-2.552-2.363c-0.885-0.68-1.364-1.736-1.957-2.676c-1.075-1.705-2.054-3.49-3.297-5.064
	c-1.213-1.535-2.682-2.875-4.083-4.254c-3.56-3.505-7.161-6.968-10.712-10.482c-1.76-1.741-3.17-3.799-4.943-5.536
	c-0.53-0.519-0.825-1.235-1.22-2.205c1.288,0.203,2.035,0.66,2.642,1.378c1.723,2.042,3.551,3.983,5.047,6.228
	c0.939,1.409,2.228,2.622,3.502,3.763c4.59,4.113,9.324,8.046,14.58,11.311c1.842,1.144,3.641,2.373,5.373,3.676
	c1.948,1.466,4.073,2.617,6.179,3.813c2.896,1.646,5.793,3.291,8.699,4.916c4.003,2.237,8.07,4.393,12.535,5.643
	c1.503,0.421,2.949,0.529,4.438-0.084c1.258-0.517,2.567-0.907,3.889-1.253c3.014-0.791,5.657-2.374,8.333-3.906
	c3.151-1.804,6.191-3.797,9.487-5.358c2.368-1.122,4.582-2.543,6.986-3.62c3.42-1.531,6.955-2.749,10.519-3.842
	c2.593-0.794,5.302-1.241,7.991-1.703c3.18-0.546,6.344-1.186,9.518-1.765c1.498-0.274,3.02-0.069,4.523-0.083
	c3.087-0.027,6.151-0.168,9.2-0.652c0.45-0.071,0.9-0.109,1.324-0.297c1.982-0.881,3.895-1.88,5.651-3.165
	c0.339-0.248,0.556-0.577,0.804-0.893c0.377-0.48,0.826-0.881,1.338-1.219c0.482-0.317,0.839-0.313,1.054,0.287
	c0.321,0.898,0.739,1.767,0.419,2.782c-0.149,0.473-0.131,0.998-0.196,1.498c-0.274,2.125-1.213,3.839-3.128,4.91
	C157.853,125.709,156.357,126.745,154.737,127.583z M217.818,108.94c-0.37,2.243-0.185,4.54-0.604,6.781
	c-0.545,2.905-0.697,5.876-1.477,8.741c-0.001,0.021-0.001,0.042-0.001,0.063c-0.005,0.005-0.008,0.011-0.013,0.016
	c0.066,0.915-0.21,1.787-0.366,2.669c-0.845,4.791-2.547,9.255-5.442,13.179c-2.693,3.652-6.017,6.606-10.077,8.757
	c-4.073,2.156-8.309,3.88-12.665,5.332c-1.097,0.366-2.248,0.616-3.413,0.642c-2.011,0.045-4.01,0.35-6.037,0.073
	c-4.255-0.581-7.916-2.331-10.868-5.444c-2.426-2.559-3.834-5.647-4.41-9.125c-0.345-2.084-0.724-4.162-1.097-6.24
	c-0.271-1.504-0.702-2.955-1.691-4.159c-0.541-0.659-0.257-1.46-0.466-2.174c-0.03-0.102,0.088-0.311,0.196-0.382
	c0.878-0.59,1.737-1.223,2.67-1.711c0.668-0.349,1.042-0.121,1.177,0.646c0.245,1.391,0.55,2.791,0.58,4.191
	c0.043,2.011,0.636,4.008,0.175,6.033c-0.032,0.142-0.024,0.311,0.022,0.449c0.982,2.963,1.701,6.024,2.98,8.878
	c1.488,3.321,4.238,5.233,7.549,6.557c4.3,1.719,8.572,1.493,12.892,0.206c2.174-0.647,4.372-1.226,6.524-1.94
	c2.752-0.913,5.191-2.435,7.555-4.094c2.658-1.865,5.152-3.933,7.189-6.453c2.432-3.006,4.136-6.439,5.223-10.16
	c0.438-1.501,0.83-3.018,1.229-4.532c0.115-0.44,0.265-0.854,0.572-1.197c-0.001-0.008,0.001-0.017,0.001-0.026
	c0.005-0.018,0.008-0.035,0.013-0.053c0.016-2.25,0.061-4.497,0.477-6.723c0.262-1.4,0.188-2.827,0.083-4.234
	c-0.224-2.975-0.284-5.935,0.019-8.915c0.184-1.801,0.101-3.635,0.053-5.452c-0.037-1.399-0.536-2.534-1.64-3.579
	c-0.972-0.921-1.94-1.459-3.214-1.718c-2.594-0.527-5.091-0.435-7.562,0.613c-1.912,0.809-3.924,1.316-6.008,1.454
	c-0.685,0.046-1.383,0.146-2.378-0.176c1.073-0.337,1.847-0.642,2.65-0.819c1.143-0.251,2.198-0.73,3.294-1.102
	c3.28-1.11,5.952-3.168,8.629-5.247c0.797-0.618,1.635-1.186,2.477-1.742c0.56-0.369,1.114-0.358,1.671,0.101
	c1.145,0.945,2.007,1.967,2.404,3.521c0.734,2.866,0.938,5.768,1.106,8.687c0.063,1.109,0.337,2.19,0.33,3.313
	C218.114,104.615,218.173,106.783,217.818,108.94z"/>
<path fill="#1D71B8" d="M148.038,136.303c-0.192-2.275-0.321-4.491-1.249-6.621c-0.814-1.869-2.165-2.914-4.125-3.414
	c-4.39-1.12-8.7-0.805-12.995,0.449c-1.986,0.58-3.992,1.099-5.968,1.71c-2.939,0.909-5.928,1.626-8.835,2.677
	c-5.38,1.947-10.168,4.89-14.831,8.12c-1.575,1.09-2.642,2.609-3.919,3.959c-1.932,2.042-2.627,4.614-3.271,7.189
	c-0.627,2.509-0.199,5.126-0.495,7.68c-0.051,0.44,0.058,0.904,0.132,1.351c0.314,1.891,0.726,3.769,0.949,5.67
	c0.486,4.128,1.375,8.167,2.869,12.033c1.144,2.962,2.528,5.826,5.698,7.312c2.766,1.296,5.614,2.247,8.654,2.547
	c2.15,0.213,4.214-0.289,6.246-0.94c1.536-0.492,3.045-1.026,4.663-1.279c1.803-0.283,3.364-1.344,5.054-1.993
	c2.858-1.098,5.504-2.501,7.825-4.512c1.526-1.321,3.117-2.57,4.616-3.921c2.458-2.213,4.013-4.957,4.173-8.293
	c0.081-1.699-0.214-3.417-0.361-5.124c-0.223-2.576-0.338-5.148,0.501-7.646c0.488-1.452,0.838-2.976,1.913-4.449
	c0.176,1.828,0.134,3.428-0.072,5.005c-0.321,2.454-0.772,4.892-0.798,7.374c-0.005,0.481-0.52,1.272,0.255,1.389
	c0.59,0.089,0.709-0.74,0.833-1.273c0.434-1.87,0.834-3.747,1.274-5.615c0.968-4.101,0.977-8.302,1.331-12.467
	C147.429,140.93,148.234,138.625,148.038,136.303z M143.305,145.882c-0.558,1.993-1.278,3.932-1.952,5.889
	c-0.758,2.2-1.166,4.46-1.015,6.839c0.147,2.314,0.522,4.612,0.456,6.945c-0.043,1.504-0.504,2.83-1.135,4.184
	c-1.251,2.682-3.558,4.331-5.654,6.212c-2.525,2.265-5.566,3.584-8.578,5.029c-3.038,1.457-6.297,2.154-9.464,3.1
	c-4.9,1.465-9.587,0.511-13.829-2.413c-1.069-0.736-1.828-1.743-2.418-2.865c-1.272-2.418-2.193-4.956-2.86-7.622
	c-0.812-3.246-1.031-6.584-1.778-9.823c-0.46-1.997-0.416-3.994-0.52-5.987c-0.166-3.184,0.896-6.028,2.867-8.53
	c0.563-0.713,1.136-1.42,1.691-2.14c0.499-0.646,1.042-1.235,1.795-1.594c0.091-0.043,0.2-0.079,0.26-0.152
	c1.874-2.265,4.75-2.976,7.051-4.571c2.343-1.625,5.019-2.596,7.466-4.006c0.13-0.074,0.274-0.149,0.419-0.171
	c3.39-0.513,6.301-2.406,9.573-3.298c2.942-0.803,5.907-1.296,8.934-1.593c1.762-0.106,3.532,0.007,5.281,0.18
	c1.931,0.19,3.104,1.526,3.532,3.3c0.483,2.001,0.709,4.066,0.985,6.112C144.738,141.333,143.943,143.602,143.305,145.882z"/>
</svg>
